<?xml version="1.0" encoding="UTF-8" standalone="no"?><!DOCTYPE svg PUBLIC "-//W3C//DTD SVG 1.1//EN" "http://www.w3.org/Graphics/SVG/1.1/DTD/svg11.dtd"><svg width="100%" height="100%" viewBox="0 0 1975 1975" version="1.1" xmlns="http://www.w3.org/2000/svg" xmlns:xlink="http://www.w3.org/1999/xlink" xml:space="preserve" xmlns:serif="http://www.serif.com/" style="fill-rule:evenodd;clip-rule:evenodd;stroke-linejoin:round;stroke-miterlimit:2;"><circle cx="987.358" cy="987.358" r="987.358" style="fill:#ed0d0d;"/><rect x="370.049" y="368.459" width="1237.44" height="1237.44" style="fill:none;fill-rule:nonzero;"/><path d="M1246.57,729.381l-206.24,-0l-0,103.12l206.24,-0c85.075,-0 154.681,69.606 154.681,154.681c-0,85.074 -69.606,154.68 -154.681,154.68l-206.24,0l-0,103.12l206.24,0c142.306,0 257.801,-115.494 257.801,-257.8c0,-142.307 -115.495,-257.801 -257.801,-257.801Zm-309.361,412.481l-206.241,0c-85.074,0 -154.68,-69.606 -154.68,-154.68c-0,-85.075 69.606,-154.681 154.68,-154.681l206.241,-0l0,-103.12l-206.241,-0c-142.306,-0 -257.8,115.494 -257.8,257.801c-0,142.306 115.494,257.8 257.8,257.8l206.241,0l0,-103.12Zm-154.68,-206.241l412.481,0l0,103.121l-412.481,-0l-0,-103.121Z" style="fill:#fff;fill-rule:nonzero;"/></svg>