<svg xmlns="http://www.w3.org/2000/svg" xml:space="preserve" style="fill-rule:evenodd;clip-rule:evenodd" viewBox="0 0 5059 5059"><path d="M2528.8 0c1396.7 0 2528.82 1132.28 2528.82 2528.82 0 1396.7-1132.12 2528.8-2528.82 2528.8C1132.1 5057.62 0 3925.5 0 2528.82 0 1132.27 1132.12 0 2528.8 0h.004Z" style="fill-rule:nonzero"/><clipPath id="a"><path d="M1385 1183.3h2305v2650.08H1385z"/></clipPath><g clip-path="url(#a)"><path d="M2595.03 1192.74c143.87-2.197 286.684-1.054 429.411-2.197 4.745 178.496 77.164 339.152 192.382 458.15l-.176-.177c124.007 111.704 285.366 184.121 463.247 196.426l2.461.175v442.594c-168.038-4.219-326.057-42.976-468.52-109.593l7.206 2.987c-68.902-33.133-127.17-67.144-182.538-105.111l4.57 2.988c-1.055 320.696 1.055 641.391-2.197 960.946-9.053 162.853-63.19 311.38-150.022 435.387l1.758-2.725c-145.188 207.939-380.37 344.426-647.807 352.511h-1.23c-10.811.527-23.554.791-36.385.791-152.043 0-294.154-42.361-415.261-115.921l3.515 2.02c-220.417-132.619-372.461-359.54-400.584-623.462l-.352-3.603c-2.197-54.929-3.251-109.858-1.054-163.644 43.064-420.007 394.959-744.921 822.7-744.921a836.76 836.76 0 0 1 140.969 11.953l-4.921-.703c2.197 162.501-4.395 325.09-4.395 487.59-37.175-13.446-80.064-21.268-124.797-21.268-164.172 0-303.823 104.936-355.5 251.442l-.79 2.637c-11.689 37.527-18.456 80.679-18.456 125.324 0 18.105 1.142 36.034 3.251 53.611l-.175-2.109c29.178 179.814 183.329 315.51 369.208 315.51 5.361 0 10.635-.088 15.908-.351h-.791c128.577-3.868 240.192-73.034 303.294-175.245l.879-1.582c23.466-32.694 39.548-72.242 44.91-115.218l.088-1.23c10.986-196.601 6.591-392.06 7.645-588.661 1.055-442.593-1.054-884.135 2.197-1325.59l.352.264v.001Z" style="fill:#fff;fill-rule:nonzero;stroke:#fff;stroke-width:3.52px"/></g></svg>