<?xml version="1.0" encoding="UTF-8" standalone="no"?>
<!DOCTYPE svg PUBLIC "-//W3C//DTD SVG 1.1//EN" "http://www.w3.org/Graphics/SVG/1.1/DTD/svg11.dtd">
<svg width="100%" height="100%" viewBox="0 0 24 24" version="1.1" xmlns="http://www.w3.org/2000/svg" xmlns:xlink="http://www.w3.org/1999/xlink" xml:space="preserve" xmlns:serif="http://www.serif.com/" style="fill-rule:evenodd;clip-rule:evenodd;stroke-linejoin:round;stroke-miterlimit:2;">
    <g transform="matrix(0.0264223,0,0,0.0264223,1.43108,1.90668)">
        <g id="notification">
            <g>
                <g>
                    <path d="M666.667,600L133.333,600L200,533.333L200,333.333C200.098,236.222 270.913,152.519 366.667,136.333L366.667,100C366.667,81.714 381.714,66.667 400,66.667C418.286,66.667 433.333,81.714 433.333,100L433.333,136.333C448.243,139.092 462.785,143.567 476.667,149.667C470.066,165.72 466.671,182.91 466.671,200.267C466.671,273.265 526.739,333.334 599.737,333.334C599.825,333.334 599.912,333.334 600,333.333L600,533.333L666.667,600ZM400,697.333C436.572,697.333 466.667,667.239 466.667,630.667L333.333,630.667C333.333,667.239 363.428,697.333 400,697.333Z" style="fill:rgb(62,73,89);fill-rule:nonzero;"/>
                </g>
            </g>
        </g>
    </g>
    <g transform="matrix(1,0,0,1,-2.41609,0.964248)">
        <circle cx="20" cy="6" r="2" style="fill:rgb(201,201,201);"/>
    </g>
</svg>
