<?xml version="1.0" encoding="UTF-8" standalone="no"?><!DOCTYPE svg PUBLIC "-//W3C//DTD SVG 1.1//EN" "http://www.w3.org/Graphics/SVG/1.1/DTD/svg11.dtd"><svg width="100%" height="100%" viewBox="0 0 100 100" version="1.1" xmlns="http://www.w3.org/2000/svg" xmlns:xlink="http://www.w3.org/1999/xlink" xml:space="preserve" xmlns:serif="http://www.serif.com/" style="fill-rule:evenodd;clip-rule:evenodd;stroke-linejoin:round;stroke-miterlimit:2;"><path d="M62.5,45.833c0,9.205 -7.462,16.667 -16.667,16.667c-9.204,0 -16.666,-7.462 -16.666,-16.667c-0,-9.204 7.462,-16.666 16.666,-16.666c9.205,-0 16.667,7.462 16.667,16.666Zm-2.181,20.378c-4.087,2.911 -9.087,4.622 -14.486,4.622c-13.807,0 -25,-11.193 -25,-25c0,-13.807 11.193,-25 25,-25c13.807,0 25,11.193 25,25c0,5.4 -1.711,10.399 -4.622,14.486l13.819,13.818l-5.893,5.893l-13.818,-13.819Z" style="fill:#fff;"/></svg>