<?xml version="1.0" encoding="UTF-8" standalone="no"?><!DOCTYPE svg PUBLIC "-//W3C//DTD SVG 1.1//EN" "http://www.w3.org/Graphics/SVG/1.1/DTD/svg11.dtd"><svg width="100%" height="100%" viewBox="0 0 100 100" version="1.1" xmlns="http://www.w3.org/2000/svg" xmlns:xlink="http://www.w3.org/1999/xlink" xml:space="preserve" xmlns:serif="http://www.serif.com/" style="fill-rule:evenodd;clip-rule:evenodd;stroke-linejoin:round;stroke-miterlimit:2;"><path d="M60.355,25l-10.355,-10.355l-10.355,10.355l-14.645,0l-0,14.645l-10.355,10.355l10.355,10.355l-0,14.645l14.645,0l10.355,10.355l10.355,-10.355l14.645,0l0,-14.645l10.355,-10.355l-10.355,-10.355l0,-14.645l-14.645,0Zm8.395,25c0,10.355 -8.395,18.75 -18.75,18.75c-10.355,0 -18.75,-8.395 -18.75,-18.75c0,-10.355 8.395,-18.75 18.75,-18.75c10.355,0 18.75,8.395 18.75,18.75Zm-18.75,12.5c6.904,0 12.5,-5.596 12.5,-12.5c0,-6.904 -5.596,-12.5 -12.5,-12.5c-6.904,0 -12.5,5.596 -12.5,12.5c0,6.904 5.596,12.5 12.5,12.5Z" style="fill:#fff;"/></svg>