<?xml version="1.0" standalone="no"?>
<!DOCTYPE svg PUBLIC "-//W3C//DTD SVG 1.1//EN" "http://www.w3.org/Graphics/SVG/1.1/DTD/svg11.dtd" >
<svg xmlns="http://www.w3.org/2000/svg">
<metadata>Generated by IcoMoon</metadata>
<defs>
<font id="eshicons" horiz-adv-x="1024">
<font-face units-per-em="1024" ascent="960" descent="-64" />
<missing-glyph horiz-adv-x="1024" />
<glyph unicode="&#x20;" horiz-adv-x="512" d="" />
<glyph unicode="&#xe900;" glyph-name="account-box" d="M810.667 725.334v-597.333h-597.333v597.333h597.333zM810.667 810.667h-597.333c-47.36 0-85.333-38.4-85.333-85.333v-597.333c0-46.933 37.973-85.333 85.333-85.333h597.333c46.933 0 85.333 38.4 85.333 85.333v597.333c0 46.933-38.4 85.333-85.333 85.333zM512 426.667c-70.4 0-128 57.6-128 128s57.6 128 128 128 128-57.6 128-128-57.6-128-128-128zM512 597.334c-23.467 0-42.667-19.2-42.667-42.667s19.2-42.667 42.667-42.667 42.667 19.2 42.667 42.667-19.2 42.667-42.667 42.667zM768 170.667h-512v65.28c0 106.667 169.387 152.747 256 152.747s256-46.080 256-152.747v-65.28zM354.56 256h314.88c-29.44 23.893-101.547 47.787-157.44 47.787s-128.427-23.893-157.44-47.787z" />
<glyph unicode="&#xe901;" glyph-name="alarm" d="M533.333 597.334h-64v-256l202.667-121.6 32 52.48-170.667 101.12zM739.712 861.44l196.565-164.053-54.613-65.493-196.693 163.968zM284.288 861.44l54.699-65.536-196.608-164.011-54.613 65.536zM512 768c-212.053 0-384-171.947-384-384s171.947-384 384-384 384 171.947 384 384-171.947 384-384 384zM512 85.334c-164.693 0-298.667 133.973-298.667 298.667s133.973 298.667 298.667 298.667 298.667-133.973 298.667-298.667-133.973-298.667-298.667-298.667z" />
<glyph unicode="&#xe902;" glyph-name="business" d="M512 640v170.667h-426.667v-768h853.333v597.333h-426.667zM256 128h-85.333v85.333h85.333v-85.333zM256 298.667h-85.333v85.333h85.333v-85.333zM256 469.334h-85.333v85.333h85.333v-85.333zM256 640h-85.333v85.333h85.333v-85.333zM426.667 128h-85.333v85.333h85.333v-85.333zM426.667 298.667h-85.333v85.333h85.333v-85.333zM426.667 469.334h-85.333v85.333h85.333v-85.333zM426.667 640h-85.333v85.333h85.333v-85.333zM853.333 128h-341.333v85.333h85.333v85.333h-85.333v85.333h85.333v85.333h-85.333v85.333h341.333v-426.667zM768 469.334h-85.333v-85.333h85.333v85.333zM768 298.667h-85.333v-85.333h85.333v85.333z" />
<glyph unicode="&#xe903;" glyph-name="chevron-left" d="M657.493 622.507l-60.16 60.16-256-256 256-256 60.16 60.16-195.413 195.84 195.413 195.84z" />
<glyph unicode="&#xe904;" glyph-name="chevron-right" d="M426.667 682.667l-60.16-60.16 195.413-195.84-195.413-195.84 60.16-60.16 256 256-256 256z" />
<glyph unicode="&#xe905;" glyph-name="notifications-circle" d="M512 149.334c35.413 0 64 28.587 64 64h-128c0-35.413 28.587-64 64-64zM512 853.334c-235.52 0-426.667-191.147-426.667-426.667s191.147-426.667 426.667-426.667c235.52 0 426.667 191.147 426.667 426.667s-191.147 426.667-426.667 426.667zM512 85.334c-188.16 0-341.333 153.173-341.333 341.333s153.173 341.333 341.333 341.333c188.16 0 341.333-153.173 341.333-341.333s-153.173-341.333-341.333-341.333zM682.667 452.694c0 90.027-43.947 167.253-128 187.307v21.333c0 24.32-18.347 42.667-42.667 42.667s-42.667-18.347-42.667-42.667v-21.333c-84.053-20.053-128-96.853-128-187.307v-111.36h-42.667v-85.333h426.667v85.333h-42.667v111.36zM597.333 341.334h-170.667v128c0 46.933 38.4 85.333 85.333 85.333s85.333-38.4 85.333-85.333v-128z" />
<glyph unicode="&#xe906;" glyph-name="close" d="M810.667 665.174l-60.16 60.16-238.507-238.507-238.507 238.507-60.16-60.16 238.507-238.507-238.507-238.507 60.16-60.16 238.507 238.507 238.507-238.507 60.16 60.16-238.507 238.507 238.507 238.507z" />
<glyph unicode="&#xe907;" glyph-name="corporate-fare" d="M512 640v170.667h-426.667v-768h853.333v597.333h-426.667zM426.667 128h-256v85.333h256v-85.333zM426.667 298.667h-256v85.333h256v-85.333zM426.667 469.334h-256v85.333h256v-85.333zM426.667 640h-256v85.333h256v-85.333zM853.333 128h-341.333v426.667h341.333v-426.667zM768 469.334h-170.667v-85.333h170.667v85.333zM768 298.667h-170.667v-85.333h170.667v85.333z" />
<glyph unicode="&#xe908;" glyph-name="dashboard" d="M810.667 725.334v-85.333h-170.667v85.333h170.667zM384 725.334v-256h-170.667v256h170.667zM810.667 384v-256h-170.667v256h170.667zM384 213.334v-85.333h-170.667v85.333h170.667zM896 810.667h-341.333v-256h341.333v256zM469.333 810.667h-341.333v-426.667h341.333v426.667zM896 469.334h-341.333v-426.667h341.333v426.667zM469.333 298.667h-341.333v-256h341.333v256z" />
<glyph unicode="&#xe909;" glyph-name="done" d="M384 247.467l-179.2 179.2-59.733-59.733 238.933-238.933 512 512-59.733 59.733-452.267-452.267z" />
<glyph unicode="&#xe90a;" glyph-name="emergency" d="M908.373 345.6l-140.373 81.067 140.373 81.067c20.48 11.947 27.307 37.973 15.787 58.453l-85.333 147.627c-11.947 20.48-37.973 27.307-58.453 15.787l-140.373-81.067v162.133c0 23.467-19.2 42.667-42.667 42.667h-170.667c-23.467 0-42.667-19.2-42.667-42.667v-162.133l-140.373 81.067c-20.48 11.52-46.507 4.693-58.453-15.787l-85.333-147.627c-11.947-20.48-4.693-46.507 15.787-58.453l140.373-81.067-140.373-81.067c-20.48-11.947-27.307-37.973-15.787-58.453l85.333-147.627c11.947-20.48 37.973-27.307 58.453-15.787l140.373 81.067v-162.133c0-23.467 19.2-42.667 42.667-42.667h170.667c23.467 0 42.667 19.2 42.667 42.667v162.133l140.373-81.067c20.48-11.947 46.507-4.693 58.453 15.787l85.333 147.627c11.947 20.48 4.693 46.507-15.787 58.453zM786.347 218.88l-199.68 115.2c-14.080 8.533-32-1.707-32-18.347v-230.4h-85.333v230.4c0 16.213-17.92 26.88-32 18.347l-199.68-115.2-42.667 73.813 199.68 115.2c14.080 8.107 14.080 28.587 0 37.12l-199.68 115.2 42.667 73.813 199.68-115.2c14.080-8.107 32 2.133 32 18.773v230.4h85.333v-230.4c0-16.213 17.92-26.88 32-18.347l199.68 115.2 42.667-73.813-199.68-115.2c-14.080-8.107-14.080-28.587 0-37.12l199.68-115.2-42.667-74.24z" />
<glyph unicode="&#xe90b;" glyph-name="expand-less" d="M512 597.334l-256-256 60.16-60.16 195.84 195.413 195.84-195.413 60.16 60.16-256 256z" />
<glyph unicode="&#xe90c;" glyph-name="expand-more" d="M707.84 572.16l-195.84-195.413-195.84 195.413-60.16-60.16 256-256 256 256-60.16 60.16z" />
<glyph unicode="&#xe90d;" glyph-name="favorite" d="M704 810.667c-74.24 0-145.493-34.56-192-89.173-46.507 54.613-117.76 89.173-192 89.173-131.413 0-234.667-103.253-234.667-234.667 0-161.28 145.067-292.693 364.8-492.373l61.867-55.893 61.867 56.32c219.733 199.253 364.8 330.667 364.8 491.947 0 131.413-103.253 234.667-234.667 234.667zM516.267 147.2l-4.267-4.267-4.267 4.267c-203.093 183.893-337.067 305.493-337.067 428.8 0 85.333 64 149.333 149.333 149.333 65.707 0 129.707-42.24 152.32-100.693h79.787c22.187 58.453 86.187 100.693 151.893 100.693 85.333 0 149.333-64 149.333-149.333 0-123.307-133.973-244.907-337.067-428.8z" />
<glyph unicode="&#xe90e;" glyph-name="feed" d="M682.667 810.667h-469.333c-46.933 0-85.333-38.4-85.333-85.333v-597.333c0-46.933 38.4-85.333 85.333-85.333h597.333c46.933 0 85.333 38.4 85.333 85.333v469.333l-213.333 213.333zM810.667 128h-597.333v597.333h426.667v-170.667h170.667v-426.667zM298.667 213.334h426.667v85.333h-426.667v-85.333zM512 640h-213.333v-85.333h213.333v85.333zM298.667 384h426.667v85.333h-426.667v-85.333z" />
<glyph unicode="&#xe90f;" glyph-name="grid-view" d="M128 810.667v-341.333h341.333v341.333h-341.333zM384 554.667h-170.667v170.667h170.667v-170.667zM128 384v-341.333h341.333v341.333h-341.333zM384 128h-170.667v170.667h170.667v-170.667zM554.667 810.667v-341.333h341.333v341.333h-341.333zM810.667 554.667h-170.667v170.667h170.667v-170.667zM554.667 384v-341.333h341.333v341.333h-341.333zM810.667 128h-170.667v170.667h170.667v-170.667z" />
<glyph unicode="&#xe910;" glyph-name="emoticon" d="M511.573 853.334c-235.52 0-426.24-191.147-426.24-426.667s190.72-426.667 426.24-426.667c235.947 0 427.093 191.147 427.093 426.667s-191.147 426.667-427.093 426.667zM512 85.334c-188.587 0-341.333 152.747-341.333 341.333s152.747 341.333 341.333 341.333 341.333-152.747 341.333-341.333-152.747-341.333-341.333-341.333zM661.333 469.334c35.413 0 64 28.587 64 64s-28.587 64-64 64-64-28.587-64-64 28.587-64 64-64zM362.667 469.334c35.413 0 64 28.587 64 64s-28.587 64-64 64-64-28.587-64-64 28.587-64 64-64zM512 192c99.413 0 183.893 62.293 218.027 149.333h-436.053c34.133-87.040 118.613-149.333 218.027-149.333z" />
<glyph unicode="&#xe911;" glyph-name="keyboard-return" d="M810.667 640v-170.667h-561.92l152.747 153.173-60.16 60.16-256-256 256-256 60.16 60.16-152.747 153.173h647.253v256h-85.333z" />
<glyph unicode="&#xe912;" glyph-name="monitor-heart" d="M853.333 768h-682.667c-46.933 0-85.333-38.4-85.333-85.333v-128h85.333v128h682.667v-128h85.333v128c0 46.933-38.4 85.333-85.333 85.333zM853.333 170.667h-682.667v128h-85.333v-128c0-46.933 38.4-85.333 85.333-85.333h682.667c46.933 0 85.333 38.4 85.333 85.333v128h-85.333v-128zM635.307 616.534c-14.507 29.013-61.867 29.013-76.373 0l-132.267-264.96-47.36 94.293c-7.253 14.507-21.76 23.467-37.973 23.467h-256v-85.333h229.547l73.387-147.2c7.68-14.507 22.187-23.467 38.4-23.467s30.72 8.96 37.973 23.467l132.693 264.96 47.36-94.293c7.253-14.507 21.76-23.467 37.973-23.467h256v85.333h-229.547l-73.813 147.2z" />
<glyph unicode="&#xe913;" glyph-name="more-time" d="M426.667 597.334v-256l200.533-123.733 34.133 51.2-170.667 102.4v226.133zM764.587 426.667c2.133-14.080 3.413-28.16 3.413-42.667 0-166.4-132.267-298.667-298.667-298.667s-298.667 132.267-298.667 298.667c0 166.4 132.267 298.667 298.667 298.667 29.867 0 58.453-4.267 85.333-12.373v87.893c-27.307 6.4-55.893 9.813-85.333 9.813-213.333 0-384-170.667-384-384s170.667-384 384-384 384 170.667 384 384c0 14.507-0.853 28.587-2.56 42.667h-86.187zM853.333 725.334v128h-85.333v-128h-128v-85.333h128v-128h85.333v128h128v85.333z" />
<glyph unicode="&#xe914;" glyph-name="movie" d="M170.667 662.614l75.093-150.613h607.573v-341.333h-682.667v491.947zM938.667 768h-170.667l85.333-170.667h-128l-85.333 170.667h-85.333l85.333-170.667h-128l-85.333 170.667h-85.333l85.333-170.667h-128l-85.333 170.667h-42.667c-46.933 0-84.907-38.4-84.907-85.333l-0.427-512c0-46.933 38.4-85.333 85.333-85.333h682.667c46.933 0 85.333 38.4 85.333 85.333v597.333z" />
<glyph unicode="&#xe915;" glyph-name="newspaper" d="M938.667 810.667l-71.253-71.253-70.827 71.253-71.253-71.253-71.253 71.253-70.827-71.253-71.253 71.253-71.253-71.253-70.827 71.253-71.253-71.253-71.253 71.253-70.827-71.253-71.253 71.253v-682.667c0-46.933 38.4-85.333 85.333-85.333h682.667c46.933 0 85.333 38.4 85.333 85.333v682.667zM469.333 128h-298.667v256h298.667v-256zM853.333 128h-298.667v85.333h298.667v-85.333zM853.333 298.667h-298.667v85.333h298.667v-85.333zM853.333 469.334h-682.667v128h682.667v-128z" />
<glyph unicode="&#xe916;" glyph-name="notifications" d="M512-0c46.933 0 85.333 38.4 85.333 85.333h-170.667c0-46.933 38.4-85.333 85.333-85.333zM768 256v213.333c0 130.987-69.547 240.64-192 269.653v29.013c0 35.413-28.587 64-64 64s-64-28.587-64-64v-29.013c-122.027-29.013-192-138.24-192-269.653v-213.333l-85.333-85.333v-42.667h682.667v42.667l-85.333 85.333zM682.667 213.334h-341.333v256c0 105.813 64.427 192 170.667 192s170.667-86.187 170.667-192v-256z" />
<glyph unicode="&#xe917;" glyph-name="person" d="M512 686.934c49.493 0 89.6-40.107 89.6-89.6s-40.107-89.6-89.6-89.6-89.6 40.107-89.6 89.6 40.107 89.6 89.6 89.6zM512 302.934c126.72 0 260.267-62.293 260.267-89.6v-46.933h-520.533v46.933c0 27.307 133.547 89.6 260.267 89.6zM512 768c-94.293 0-170.667-76.373-170.667-170.667s76.373-170.667 170.667-170.667 170.667 76.373 170.667 170.667-76.373 170.667-170.667 170.667zM512 384c-113.92 0-341.333-57.173-341.333-170.667v-128h682.667v128c0 113.493-227.413 170.667-341.333 170.667z" />
<glyph unicode="&#xe918;" glyph-name="play-arrow" d="M426.667 570.027l224.853-143.36-224.853-143.36v286.72zM341.333 725.334v-597.333l469.333 298.667-469.333 298.667z" />
<glyph unicode="&#xe919;" glyph-name="question-answer" d="M640 768v-298.667h-419.413l-49.92-49.92v348.587h469.333zM682.667 853.334h-554.667c-23.467 0-42.667-19.2-42.667-42.667v-597.333l170.667 170.667h426.667c23.467 0 42.667 19.2 42.667 42.667v384c0 23.467-19.2 42.667-42.667 42.667zM896 682.667h-85.333v-384h-554.667v-85.333c0-23.467 19.2-42.667 42.667-42.667h469.333l170.667-170.667v640c0 23.467-19.2 42.667-42.667 42.667z" />
<glyph unicode="&#xe91a;" glyph-name="smart-display" d="M405.333 618.667v-384l298.667 192zM853.333 768h-682.667c-46.933 0-85.333-38.4-85.333-85.333v-512c0-46.933 38.4-85.333 85.333-85.333h682.667c46.933 0 85.333 38.4 85.333 85.333v512c0 46.933-38.4 85.333-85.333 85.333zM853.333 170.24h-682.667v512.853h682.667v-512.853z" />
<glyph unicode="&#xe91b;" glyph-name="soccer" d="M512 853.334c-235.52 0-426.667-191.147-426.667-426.667s191.147-426.667 426.667-426.667 426.667 191.147 426.667 426.667c0 235.52-191.147 426.667-426.667 426.667zM554.667 712.534l57.6 40.533c77.653-23.893 143.787-75.093 186.88-142.507l-16.64-57.173-57.6-19.627-170.24 119.040v59.733zM411.733 753.067l57.6-40.533v-59.733l-170.24-119.040-57.6 19.627-16.64 57.173c43.093 66.987 109.227 118.187 186.88 142.507zM302.080 208.64l-48.64-4.267c-51.627 59.733-82.773 137.387-82.773 222.293 0 5.12 0.427 9.813 0.853 14.933l42.667 31.147 58.88-20.48 62.293-185.173-33.28-58.453zM618.667 102.827c-33.707-11.093-69.547-17.493-106.667-17.493s-72.96 6.4-106.667 17.493l-29.44 63.573 27.307 46.933h218.027l27.307-47.36-29.867-63.147zM608.853 298.667h-193.707l-57.6 171.52 154.453 108.373 154.88-108.373-58.027-171.52zM770.56 204.374l-48.64 4.267-33.707 58.453 62.293 185.173 59.307 20.053 42.667-31.147c0.427-4.693 0.853-9.387 0.853-14.507 0-84.907-31.147-162.56-82.773-222.293z" />
<glyph unicode="&#xe91c;" glyph-name="star" d="M938.667 544.427l-306.773 26.453-119.893 282.453-119.893-282.88-306.773-26.027 232.96-201.813-69.973-299.947 263.68 159.147 263.68-159.147-69.547 299.947 232.533 201.813zM512 281.6l-160.427-96.853 42.667 182.613-141.653 122.88 186.88 16.213 72.533 171.947 72.96-172.373 186.88-16.213-141.653-122.88 42.667-182.613-160.853 97.28z" />
<glyph unicode="&#xe91d;" glyph-name="unfold" d="M316.16 145.494l60.587-60.16 135.253 135.253 135.253-135.253 60.16 60.16-195.413 195.84-195.84-195.84zM707.84 707.84l-60.587 60.16-135.253-135.253-135.253 135.253-60.587-60.16 195.84-195.84 195.84 195.84z" />
<glyph unicode="&#xe91e;" glyph-name="unfold-more" d="M512 689.92l135.253-135.253 60.16 60.16-195.413 195.84-195.84-195.84 60.587-60.16 135.253 135.253zM512 163.414l-135.253 135.253-60.16-60.16 195.413-195.84 195.84 195.84-60.587 60.16-135.253-135.253z" />
<glyph unicode="&#xe91f;" glyph-name="update" d="M469.333 597.334v-213.333l181.333-107.52 32.853 54.613-150.187 89.173v177.067h-64zM896 512v298.667l-112.64-112.64c-69.12 69.547-165.12 112.64-271.36 112.64-212.053 0-384-171.947-384-384s171.947-384 384-384 384 171.947 384 384h-85.333c0-164.693-133.973-298.667-298.667-298.667s-298.667 133.973-298.667 298.667 133.973 298.667 298.667 298.667c82.347 0 157.013-33.707 211.2-87.467l-125.867-125.867h298.667z" />
<glyph unicode="&#xe920;" glyph-name="video-camera" d="M768 491.52v191.147c0 46.933-38.4 85.333-85.333 85.333h-512c-46.933 0-85.333-38.4-85.333-85.333v-512c0-46.933 38.4-85.333 85.333-85.333h512c46.933 0 85.333 38.4 85.333 85.333v191.147l170.667-169.813v469.333l-170.667-169.813zM682.667 525.227v-354.56h-512v512h512v-157.44zM512 512c0-47.128-38.205-85.333-85.333-85.333s-85.333 38.205-85.333 85.333c0 47.128 38.205 85.333 85.333 85.333s85.333-38.205 85.333-85.333zM597.333 280.32c0 34.56-20.48 65.28-52.053 78.933-36.267 15.787-76.373 24.747-118.613 24.747s-82.347-8.96-118.613-24.747c-31.573-13.653-52.053-44.373-52.053-78.933v-24.32h341.333v24.32z" />
<glyph unicode="&#xe921;" glyph-name="video-library" d="M170.667 682.667h-85.333v-597.333c0-46.933 38.4-85.333 85.333-85.333h597.333v85.333h-597.333v597.333zM853.333 853.334h-512c-46.933 0-85.333-38.4-85.333-85.333v-512c0-46.933 38.4-85.333 85.333-85.333h512c46.933 0 85.333 38.4 85.333 85.333v512c0 46.933-38.4 85.333-85.333 85.333zM853.333 256h-512v512h512v-512zM512 704v-384l256 192z" />
<glyph unicode="&#xe922;" glyph-name="videocam" d="M640 597.334v-341.333h-426.667v341.333h426.667zM682.667 682.667h-512c-23.467 0-42.667-19.2-42.667-42.667v-426.667c0-23.467 19.2-42.667 42.667-42.667h512c23.467 0 42.667 19.2 42.667 42.667v149.333l170.667-170.667v469.333l-170.667-170.667v149.333c0 23.467-19.2 42.667-42.667 42.667z" />
<glyph unicode="&#xe923;" glyph-name="work" d="M597.333 682.667v85.333h-170.667v-85.333h170.667zM170.667 597.334v-469.333h682.667v469.333h-682.667zM853.333 682.667c47.36 0 85.333-37.973 85.333-85.333v-469.333c0-47.36-37.973-85.333-85.333-85.333h-682.667c-47.36 0-85.333 37.973-85.333 85.333l0.427 469.333c0 47.36 37.547 85.333 84.907 85.333h170.667v85.333c0 47.36 37.973 85.333 85.333 85.333h170.667c47.36 0 85.333-37.973 85.333-85.333v-85.333h170.667z" />
<glyph unicode="&#xe924;" glyph-name="account-circle" d="M512 853.334c-235.52 0-426.667-191.147-426.667-426.667s191.147-426.667 426.667-426.667 426.667 191.147 426.667 426.667-191.147 426.667-426.667 426.667zM301.653 158.72c18.347 38.4 130.133 75.947 210.347 75.947s192.427-37.547 210.347-75.947c-58.027-46.080-130.987-73.387-210.347-73.387s-152.32 27.307-210.347 73.387zM783.36 220.587c-61.013 74.24-209.067 99.413-271.36 99.413s-210.347-25.173-271.36-99.413c-43.52 57.173-69.973 128.427-69.973 206.080 0 188.16 153.173 341.333 341.333 341.333s341.333-153.173 341.333-341.333c0-77.653-26.453-148.907-69.973-206.080zM512 682.667c-82.773 0-149.333-66.56-149.333-149.333s66.56-149.333 149.333-149.333 149.333 66.56 149.333 149.333-66.56 149.333-149.333 149.333zM512 469.334c-35.413 0-64 28.587-64 64s28.587 64 64 64 64-28.587 64-64-28.587-64-64-64z" />
<glyph unicode="&#xe925;" glyph-name="dot-circle" d="M512 853.334c-235.093 0-426.667-191.573-426.667-426.667s191.573-426.667 426.667-426.667 426.667 191.573 426.667 426.667-191.573 426.667-426.667 426.667zM512 85.334c-188.16 0-341.333 153.173-341.333 341.333s153.173 341.333 341.333 341.333 341.333-153.173 341.333-341.333-153.173-341.333-341.333-341.333zM640 426.667c0-70.827-57.173-128-128-128s-128 57.173-128 128 57.173 128 128 128 128-57.173 128-128z" />
<glyph unicode="&#xe926;" glyph-name="email-at" d="M512 855.467c-235.52 0-426.667-191.147-426.667-426.667s191.147-426.667 426.667-426.667h213.333v85.333h-213.333c-185.173 0-341.333 156.16-341.333 341.333s156.16 341.333 341.333 341.333 341.333-156.16 341.333-341.333v-61.013c0-33.707-30.293-66.987-64-66.987s-64 33.28-64 66.987v61.013c0 117.76-95.573 213.333-213.333 213.333s-213.333-95.573-213.333-213.333 95.573-213.333 213.333-213.333c58.88 0 112.64 23.893 151.040 62.72 27.733-37.973 75.52-62.72 126.293-62.72 84.053 0 149.333 68.267 149.333 152.32v61.013c0 235.52-191.147 426.667-426.667 426.667zM512 300.8c-70.827 0-128 57.173-128 128s57.173 128 128 128 128-57.173 128-128-57.173-128-128-128z" />
<glyph unicode="&#xe927;" glyph-name="arrow-down-circle" d="M512 768c188.16 0 341.333-153.173 341.333-341.333s-153.173-341.333-341.333-341.333-341.333 153.173-341.333 341.333 153.173 341.333 341.333 341.333zM512 853.334c-235.52 0-426.667-191.147-426.667-426.667s191.147-426.667 426.667-426.667c235.52 0 426.667 191.147 426.667 426.667s-191.147 426.667-426.667 426.667v0zM554.667 426.667v170.667h-85.333v-170.667h-128l170.667-170.667 170.667 170.667h-128z" />
<glyph unicode="&#xe928;" glyph-name="article" d="M810.667 725.334v-597.333h-597.333v597.333h597.333zM810.667 810.667h-597.333c-46.933 0-85.333-38.4-85.333-85.333v-597.333c0-46.933 38.4-85.333 85.333-85.333h597.333c46.933 0 85.333 38.4 85.333 85.333v597.333c0 46.933-38.4 85.333-85.333 85.333v0zM597.333 213.334h-298.667v85.333h298.667v-85.333zM725.333 384h-426.667v85.333h426.667v-85.333zM725.333 554.667h-426.667v85.333h426.667v-85.333z" />
<glyph unicode="&#xe929;" glyph-name="book" d="M958.72 716.8c-20.053 10.24-40.96 18.773-62.72 26.027v-513.28c-48.64 17.493-98.56 26.453-149.333 26.453-81.067 0-161.28-23.040-234.667-67.413v516.267c-69.12 39.68-148.907 63.147-234.667 63.147-76.373 0-148.48-18.773-212.053-51.2-14.080-6.827-22.613-21.76-22.613-37.547v-515.413c0-24.747 20.053-42.24 42.667-42.24 6.827 0 13.653 1.707 20.48 5.12 51.627 26.88 109.653 43.947 171.52 43.947 88.32 0 169.813-34.987 234.667-85.333 64.853 50.347 146.347 85.333 234.667 85.333 61.867 0 119.893-17.067 171.52-44.373 6.827-3.413 13.653-5.12 20.48-5.12 22.187 0 42.667 17.493 42.667 42.24v515.84c0 15.787-8.533 30.72-22.613 37.547zM426.667 229.547c-48.64 17.493-98.56 26.453-149.333 26.453s-100.693-8.96-149.333-26.453v422.827c47.36 20.053 97.28 30.293 149.333 30.293 51.2 0 101.973-10.667 149.333-30.72v-422.4zM810.667 917.334l-213.333-213.333v-405.333l213.333 192v426.667z" />
<glyph unicode="&#xe92a;" glyph-name="mini-player" d="M896 810.667h-768c-46.933 0-85.333-38.4-85.333-85.333v-597.333c0-46.933 38.4-85.333 85.333-85.333h768c46.933 0 85.333 38.4 85.333 85.333v597.333c0 46.933-38.4 85.333-85.333 85.333zM896 128h-768v597.333h768v-597.333zM469.333 426.667h384v-256h-384z" />
<glyph unicode="&#xe92b;" glyph-name="brightness-moon" d="M853.333 567.894v200.107h-200.107l-141.227 141.227-141.227-141.227h-200.107v-200.107l-141.227-141.227 141.227-141.227v-200.107h200.107l141.227-141.227 141.227 141.227h200.107v200.107l141.227 141.227-141.227 141.227zM768 320.854v-150.187h-150.187l-105.813-105.813-105.813 105.813h-150.187v150.187l-105.813 105.813 105.813 105.813v150.187h150.187l105.813 105.813 105.813-105.813h150.187v-150.187l105.813-105.813-105.813-105.813zM524.373 640c-31.573 0-61.867-7.253-88.747-19.627 73.387-33.707 124.587-107.947 124.587-193.707s-51.2-160-124.587-193.707c26.88-12.373 57.173-19.627 88.747-19.627 117.76 0 213.333 95.573 213.333 213.333s-95.573 213.333-213.333 213.333z" />
<glyph unicode="&#xe92c;" glyph-name="brightness-light" d="M853.333 567.894v200.107h-200.107l-141.227 141.227-141.227-141.227h-200.107v-200.107l-141.227-141.227 141.227-141.227v-200.107h200.107l141.227-141.227 141.227 141.227h200.107v200.107l141.227 141.227-141.227 141.227zM768 320.854v-150.187h-150.187l-105.813-105.813-105.813 105.813h-150.187v150.187l-105.813 105.813 105.813 105.813v150.187h150.187l105.813 105.813 105.813-105.813h150.187v-150.187l105.813-105.813-105.813-105.813zM512 661.334c-129.28 0-234.667-105.387-234.667-234.667s105.387-234.667 234.667-234.667 234.667 105.387 234.667 234.667-105.387 234.667-234.667 234.667zM512 277.334c-82.347 0-149.333 66.987-149.333 149.333s66.987 149.333 149.333 149.333 149.333-66.987 149.333-149.333-66.987-149.333-149.333-149.333z" />
<glyph unicode="&#xe92d;" glyph-name="brightness-dark" d="M853.333 567.894v200.107h-200.107l-141.227 141.227-141.227-141.227h-200.107v-200.107l-141.227-141.227 141.227-141.227v-200.107h200.107l141.227-141.227 141.227 141.227h200.107v200.107l141.227 141.227-141.227 141.227zM768 320.854v-150.187h-150.187l-105.813-105.813-105.813 105.813h-150.187v150.187l-105.813 105.813 105.813 105.813v150.187h150.187l105.813 105.813 105.813-105.813h150.187v-150.187l105.813-105.813-105.813-105.813zM512 661.334v-469.333c129.28 0 234.667 105.387 234.667 234.667s-105.387 234.667-234.667 234.667z" />
<glyph unicode="&#xe92e;" glyph-name="build-circle" d="M512 853.334c-235.52 0-426.667-191.147-426.667-426.667s191.147-426.667 426.667-426.667 426.667 191.147 426.667 426.667c0 235.52-191.147 426.667-426.667 426.667zM512 85.334c-188.16 0-341.333 153.173-341.333 341.333s153.173 341.333 341.333 341.333 341.333-153.173 341.333-341.333c0-188.16-153.173-341.333-341.333-341.333zM575.573 453.12c18.347 52.053 7.253 112.64-34.56 154.453-47.36 47.36-119.040 55.467-174.933 25.173l100.267-100.267-60.16-60.16-100.267 100.267c-30.293-56.32-22.187-127.573 25.173-174.933 41.813-41.813 102.4-52.907 154.453-34.56l145.493-145.493c8.533-8.533 21.76-8.533 30.293 0l59.733 59.733c8.533 8.533 8.533 21.76 0 30.293l-145.493 145.493z" />
<glyph unicode="&#xe92f;" glyph-name="phone" d="M279.040 725.334c2.56-37.973 8.96-75.093 19.2-110.507l-51.2-51.2c-17.493 51.2-28.587 105.387-32.427 161.707h64.427zM699.733 212.48c36.267-10.24 73.387-16.64 110.933-19.2v-63.573c-56.32 3.84-110.507 14.933-162.133 32l51.2 50.773zM320 810.667h-149.333c-23.467 0-42.667-19.2-42.667-42.667 0-400.64 324.693-725.333 725.333-725.333 23.467 0 42.667 19.2 42.667 42.667v148.907c0 23.467-19.2 42.667-42.667 42.667-52.907 0-104.533 8.533-152.32 24.32-4.267 1.707-8.96 2.133-13.227 2.133-11.093 0-21.76-4.267-30.293-12.373l-93.867-93.867c-120.747 61.867-219.733 160.427-281.173 281.173l93.867 93.867c11.947 11.947 15.36 28.587 10.667 43.52-15.787 47.787-24.32 98.987-24.32 152.32 0 23.467-19.2 42.667-42.667 42.667z" />
<glyph unicode="&#xe930;" glyph-name="lens" d="M608 842.24l-3.413 1.707-0.427-0.853c-29.867 6.4-60.587 10.24-92.16 10.24-235.52 0-426.667-191.147-426.667-426.667s191.147-426.667 426.667-426.667 426.667 191.147 426.667 426.667c0 202.667-141.227 372.053-330.667 415.573zM828.16 554.667h-340.907l115.627 200.533c102.4-28.16 185.6-103.253 225.28-200.533zM558.933 764.587l-169.813-295.253-116.053 200.533c61.44 60.587 145.92 98.133 238.933 98.133 15.787 0 31.573-1.28 46.933-3.413zM243.2 636.16l121.173-209.493 49.067-85.333h-231.68c-6.827 27.307-11.093 55.893-11.093 85.333 0 78.933 27.307 151.467 72.533 209.493zM195.84 298.667h340.48l-115.627-200.533c-102.4 28.587-185.173 103.253-224.853 200.533zM465.067 89.174l170.24 294.827 116.053-200.533c-61.867-60.587-146.347-98.133-239.36-98.133-16.213 0-31.573 1.707-46.933 3.84zM780.8 217.174l-170.667 294.827h231.68c7.253-27.307 11.52-55.893 11.52-85.333 0-78.933-27.307-151.467-72.533-209.493z" />
<glyph unicode="&#xe931;" glyph-name="cast" d="M896 810.667h-768c-46.933 0-85.333-38.4-85.333-85.333v-128h85.333v128h768v-597.333h-298.667v-85.333h298.667c46.933 0 85.333 38.4 85.333 85.333v597.333c0 46.933-38.4 85.333-85.333 85.333zM42.667 170.667v-128h128c0 70.827-57.173 128-128 128zM42.667 341.334v-85.333c117.76 0 213.333-95.573 213.333-213.333h85.333c0 165.12-133.547 298.667-298.667 298.667zM42.667 512v-85.333c212.053 0 384-171.947 384-384h85.333c0 259.413-210.347 469.333-469.333 469.333z" />
<glyph unicode="&#xe932;" glyph-name="center-focus" d="M725.333 426.667c0 117.76-95.573 213.333-213.333 213.333s-213.333-95.573-213.333-213.333 95.573-213.333 213.333-213.333 213.333 95.573 213.333 213.333zM512 298.667c-70.4 0-128 57.6-128 128s57.6 128 128 128 128-57.6 128-128-57.6-128-128-128zM213.333 298.667h-85.333v-170.667c0-46.933 38.4-85.333 85.333-85.333h170.667v85.333h-170.667v170.667zM213.333 725.334h170.667v85.333h-170.667c-46.933 0-85.333-38.4-85.333-85.333v-170.667h85.333v170.667zM810.667 810.667h-170.667v-85.333h170.667v-170.667h85.333v170.667c0 46.933-38.4 85.333-85.333 85.333zM810.667 128h-170.667v-85.333h170.667c46.933 0 85.333 38.4 85.333 85.333v170.667h-85.333v-170.667z" />
<glyph unicode="&#xe933;" glyph-name="baby-car" d="M554.667 853.334v-341.333h341.333c0 188.587-152.747 341.333-341.333 341.333zM640 597.334v156.16c72.533-25.6 130.133-83.2 156.16-156.16h-156.16zM274.773 469.334l-40.533 85.333h-148.907v-85.333h94.72s80.64-173.653 90.453-188.587c-46.933-25.173-78.507-74.667-78.507-131.413 0-82.347 66.987-149.333 149.333-149.333 75.093 0 137.387 55.467 147.627 128h88.747c10.24-72.533 72.533-128 147.627-128 82.347 0 149.333 66.987 149.333 149.333 0 44.373-19.627 84.053-50.347 111.36 44.8 57.6 71.68 130.133 71.68 208.64h-621.227zM341.333 85.334c-35.413 0-64 28.587-64 64s28.587 64 64 64 64-28.587 64-64-28.587-64-64-64zM725.333 85.334c-35.413 0-64 28.587-64 64s28.587 64 64 64 64-28.587 64-64-28.587-64-64-64zM756.907 313.174l-12.373-15.787c-5.973 0.853-12.8 1.28-19.2 1.28-59.307 0-110.933-34.987-134.827-85.333h-114.347c-21.333 44.373-64 76.8-114.347 84.053l-18.773 28.587c-4.267 7.253-14.507 29.44-28.587 58.027h481.707c-8.96-25.173-22.187-49.067-39.253-70.827z" />
<glyph unicode="&#xe934;" glyph-name="cloud" d="M512 682.667c111.787 0 208.213-79.36 229.973-189.013l12.8-64 65.28-4.693c66.56-4.267 118.613-60.16 118.613-126.293 0-70.4-57.6-128-128-128h-554.667c-94.293 0-170.667 76.373-170.667 170.667 0 87.467 65.28 160.427 151.893 169.387l45.653 4.693 21.333 40.533c40.533 78.080 119.893 126.72 207.787 126.72zM512 768c-123.307 0-230.4-69.973-283.733-172.373-128.427-13.653-228.267-122.453-228.267-254.293 0-141.227 114.773-256 256-256h554.667c117.76 0 213.333 95.573 213.333 213.333 0 112.64-87.467 203.947-198.4 211.627-29.013 147.2-158.293 257.707-313.6 257.707z" />
<glyph unicode="&#xe935;" glyph-name="code" d="M401.067 230.4l-196.267 196.267 196.267 196.267-59.733 59.733-256-256 256-256 59.733 59.733zM622.933 230.4l196.267 196.267-196.267 196.267 59.733 59.733 256-256-256-256-59.733 59.733z" />
<glyph unicode="&#xe936;" glyph-name="crop" d="M128 725.334v-170.667h85.333v170.667h170.667v85.333h-170.667c-46.933 0-85.333-38.4-85.333-85.333zM213.333 298.667h-85.333v-170.667c0-46.933 38.4-85.333 85.333-85.333h170.667v85.333h-170.667v170.667zM810.667 128h-170.667v-85.333h170.667c46.933 0 85.333 38.4 85.333 85.333v170.667h-85.333v-170.667zM810.667 810.667h-170.667v-85.333h170.667v-170.667h85.333v170.667c0 46.933-38.4 85.333-85.333 85.333z" />
<glyph unicode="&#xe937;" glyph-name="moon" d="M399.787 703.574c-7.68-27.307-11.52-55.893-11.52-84.907 0-174.080 141.653-315.733 315.733-315.733 29.013 0 57.6 3.84 84.907 11.52-44.373-109.227-151.893-186.453-276.907-186.453-164.693 0-298.667 133.973-298.667 298.667 0 125.013 77.227 232.533 186.453 276.907zM512 810.667c-212.053 0-384-171.947-384-384s171.947-384 384-384 384 171.947 384 384c0 19.627-1.707 39.253-4.267 58.027-41.813-58.453-110.080-96.427-187.733-96.427-127.147 0-230.4 103.253-230.4 230.4 0 77.227 37.973 145.92 96.427 187.733-18.773 2.56-38.4 4.267-58.027 4.267v0z" />
<glyph unicode="&#xe938;" glyph-name="dining" d="M629.333 682.667c-58.453 0-106.667-64.853-106.667-145.067 0-63.147 29.867-115.627 71.253-135.68l3.413-1.707v-272.213h64v272.213l3.413 1.28c41.387 20.053 71.253 72.533 71.253 135.68 0 80.213-47.787 145.493-106.667 145.493zM448 682.667c-11.52 0-21.333-9.387-21.333-21.333v-106.667h-32v106.667c0 11.947-9.387 21.333-21.333 21.333s-21.333-9.387-21.333-21.333v-106.667h-32v106.667c0 11.947-9.387 21.333-21.333 21.333s-21.333-9.387-21.333-21.333v-162.133c0-39.68 27.307-72.96 64-82.347v-288.853h64v288.853c36.693 9.387 64 42.667 64 82.347v162.133c0 11.947-9.387 21.333-21.333 21.333zM853.333 768h-682.667v-682.667h682.667v682.667zM853.333 853.334c46.933 0 85.333-38.4 85.333-85.333v-682.667c0-46.933-38.4-85.333-85.333-85.333h-682.667c-46.933 0-85.333 38.4-85.333 85.333v682.667c0 46.933 38.4 85.333 85.333 85.333h682.667z" />
<glyph unicode="&#xe939;" glyph-name="right-sign" d="M957.013 486.827l-384.427 384.427c-32 32-88.32 32.427-120.747 0l-384-384c-33.28-33.28-33.28-87.040 0-120.32l384-384c16.64-16.64 38.4-24.747 60.16-24.747s43.52 8.107 60.16 24.747l383.573 383.573c33.707 32.427 34.133 86.187 1.28 120.32zM512.427 43.094l-384 384 384 384 384-384-384-384zM341.333 469.334v-170.667h85.333v128h170.667v-106.667l149.333 149.333-149.333 149.333v-106.667h-213.333c-23.467 0-42.667-19.2-42.667-42.667z" />
<glyph unicode="&#xe93a;" glyph-name="ship" d="M554.667 810.667v-42.667h-85.333v42.667h85.333zM512 507.307l331.52-108.8-47.787-169.387c-23.040 12.8-40.107 30.293-48.64 40.107l-64.427 73.813-64.427-73.387c-14.507-17.067-54.613-56.32-106.24-56.32s-91.733 39.253-106.24 56.32l-64.427 73.387-64.427-73.387c-8.533-9.813-25.6-26.88-48.64-39.68l-48.213 168.96 102.4 33.707 229.547 74.667zM640 896h-256v-128h-128c-46.933 0-85.333-38.4-85.333-85.333v-197.12l-55.040-17.92c-11.093-3.413-20.48-11.093-25.6-21.333s-6.4-22.187-2.56-33.28l81.067-285.013h2.133c68.267 0 128.853 37.547 170.667 85.333 41.813-47.787 102.4-85.333 170.667-85.333s128.853 37.547 170.667 85.333c41.813-47.787 102.4-85.333 170.667-85.333h2.133l80.64 285.013c3.413 11.093 2.56 23.040-2.56 33.28s-14.507 17.92-25.6 21.333l-54.613 17.92v197.12c0 46.933-38.4 85.333-85.333 85.333h-128v128zM256 513.28v169.387h512v-169.387l-256 84.053-256-84.053zM682.667 98.987c-52.053-36.267-111.36-54.613-170.667-54.613s-118.613 18.347-170.667 54.613c-52.053-36.267-111.36-56.32-170.667-56.32h-85.333v-85.333h85.333c58.88 0 116.907 14.933 170.667 42.24 53.76-27.307 112.213-41.387 170.667-41.387s116.907 13.653 170.667 41.387c53.76-27.733 111.787-42.24 170.667-42.24h85.333v85.333h-85.333c-59.307 0-118.613 20.053-170.667 56.32z" />
<glyph unicode="&#xe93b;" glyph-name="tags" d="M545.707 42.667l-417.707 417.707v-85.333c0-22.613 8.96-44.373 25.173-60.16l332.373-332.373c33.28-33.28 87.467-33.28 120.747 0l264.96 264.96c33.28 33.28 33.28 87.467 0 120.747l-325.547-325.547zM485.547 195.84c16.64-16.64 38.4-25.173 60.16-25.173s43.52 8.533 60.16 25.173l264.96 264.96c33.28 33.28 33.28 87.467 0 120.747l-332.373 332.373c-15.787 15.787-37.547 24.747-60.16 24.747h-264.96c-46.933 0-85.333-38.4-85.333-85.333v-264.96c0-22.613 8.96-44.373 25.173-60.16l332.373-332.373zM213.333 853.334h264.96l332.373-332.373-264.96-264.96-332.373 332.373v264.96zM362.667 757.334c0-29.455-23.878-53.333-53.333-53.333s-53.333 23.878-53.333 53.333c0 29.455 23.878 53.333 53.333 53.333s53.333-23.878 53.333-53.333z" />
<glyph unicode="&#xe93c;" glyph-name="email" d="M938.667 682.667c0 46.933-38.4 85.333-85.333 85.333h-682.667c-46.933 0-85.333-38.4-85.333-85.333v-512c0-46.933 38.4-85.333 85.333-85.333h682.667c46.933 0 85.333 38.4 85.333 85.333v512zM853.333 682.667l-341.333-213.333-341.333 213.333h682.667zM853.333 170.667h-682.667v426.667l341.333-213.333 341.333 213.333v-426.667z" />
<glyph unicode="&#xe93e;" glyph-name="esports" d="M920.747 252.16l-46.507 326.827c-11.947 84.053-84.053 146.347-168.96 146.347h-386.56c-84.907 0-157.013-62.293-168.96-146.347l-46.507-326.827c-9.387-65.707 41.387-124.16 107.52-124.16v0c29.013 0 56.32 11.52 76.8 32l96.427 96h256l96-96c20.48-20.48 48.213-32 76.8-32v0c66.56 0 117.333 58.453 107.947 124.16zM831.147 221.44c-3.413-3.84-8.96-8.107-17.92-8.107-6.4 0-12.373 2.56-16.64 6.827l-121.173 121.173h-326.827l-121.173-121.173c-4.267-4.267-10.24-6.827-16.64-6.827-8.96 0-14.507 4.267-17.92 8.107s-6.827 9.813-5.547 18.773l46.507 326.827c6.4 41.387 42.667 72.96 84.907 72.96h386.56c42.24 0 78.507-31.573 84.48-73.387l46.507-326.827c1.28-8.533-2.133-14.507-5.12-18.347zM384 597.334h-42.667v-85.333h-85.333v-42.667h85.333v-85.333h42.667v85.333h85.333v42.667h-85.333zM768 426.667c0-23.564-19.103-42.667-42.667-42.667s-42.667 19.103-42.667 42.667c0 23.564 19.103 42.667 42.667 42.667s42.667-19.103 42.667-42.667zM682.667 554.667c0-23.564-19.103-42.667-42.667-42.667s-42.667 19.103-42.667 42.667c0 23.564 19.103 42.667 42.667 42.667s42.667-19.103 42.667-42.667z" />
<glyph unicode="&#xe93f;" glyph-name="exit" d="M430.507 273.494l60.16-60.16 213.333 213.333-213.333 213.333-60.16-60.16 110.080-110.507h-412.587v-85.333h412.587l-110.080-110.507zM810.667 810.667h-597.333c-47.36 0-85.333-38.4-85.333-85.333v-170.667h85.333v170.667h597.333v-597.333h-597.333v170.667h-85.333v-170.667c0-46.933 37.973-85.333 85.333-85.333h597.333c46.933 0 85.333 38.4 85.333 85.333v597.333c0 46.933-38.4 85.333-85.333 85.333z" />
<glyph unicode="&#xe940;" glyph-name="filter-hdr" d="M597.333 682.667l-180.053-240.213 53.333-71.253 126.72 169.387 213.333-284.587h-360.96l-171.093 229.12-235.947-314.453h938.667l-384 512zM213.333 256l64.853 86.613 64.853-86.613h-129.707z" />
<glyph unicode="&#xe941;" glyph-name="folder" d="M853.333 682.667h-341.333l-85.333 85.333h-256c-46.933 0-84.907-38.4-84.907-85.333l-0.427-512c0-46.933 38.4-85.333 85.333-85.333h682.667c46.933 0 85.333 38.4 85.333 85.333v426.667c0 46.933-38.4 85.333-85.333 85.333zM853.333 170.667h-682.667v426.667h682.667v-426.667z" />
<glyph unicode="&#xe942;" glyph-name="star-bold" d="M512 634.454l61.44-145.067 51.2-4.267 105.387-8.96-119.040-103.253 11.52-50.347 23.893-102.827-90.453 54.613-43.947 27.307-43.947-26.453-90.453-54.613 23.893 102.827 11.52 50.347-119.040 103.253 156.587 13.227 20.053 47.36 41.387 96.853zM512 853.334l-119.893-282.88-306.773-26.027 232.96-201.813-69.973-299.947 263.68 159.147 263.68-159.147-69.973 299.947 232.96 201.813-306.773 26.027-119.893 282.88z" />
<glyph unicode="&#xe943;" glyph-name="dots" d="M213.333 597.334c-94.293 0-170.667-76.373-170.667-170.667s76.373-170.667 170.667-170.667 170.667 76.373 170.667 170.667-76.373 170.667-170.667 170.667zM725.333 682.667c-141.227 0-256-114.773-256-256s114.773-256 256-256 256 114.773 256 256-114.773 256-256 256zM725.333 256c-94.293 0-170.667 76.373-170.667 170.667s76.373 170.667 170.667 170.667 170.667-76.373 170.667-170.667-76.373-170.667-170.667-170.667z" />
<glyph unicode="&#xe944;" glyph-name="headphones" d="M512 810.667c-212.053 0-384-171.947-384-384v-298.667c0-46.933 38.4-85.333 85.333-85.333h170.667v341.333h-170.667v42.667c0 165.12 133.547 298.667 298.667 298.667s298.667-133.547 298.667-298.667v-42.667h-170.667v-341.333h170.667c46.933 0 85.333 38.4 85.333 85.333v298.667c0 212.053-171.947 384-384 384zM298.667 298.667v-170.667h-85.333v170.667h85.333zM810.667 128h-85.333v170.667h85.333v-170.667z" />
<glyph unicode="&#xe945;" glyph-name="help-circle" d="M469.333 170.667h85.333v85.333h-85.333v-85.333zM512 853.334c-235.52 0-426.667-191.147-426.667-426.667s191.147-426.667 426.667-426.667 426.667 191.147 426.667 426.667-191.147 426.667-426.667 426.667zM512 85.334c-188.16 0-341.333 153.173-341.333 341.333s153.173 341.333 341.333 341.333 341.333-153.173 341.333-341.333-153.173-341.333-341.333-341.333zM512 682.667c-94.293 0-170.667-76.373-170.667-170.667h85.333c0 46.933 38.4 85.333 85.333 85.333s85.333-38.4 85.333-85.333c0-85.333-128-74.667-128-213.333h85.333c0 96 128 106.667 128 213.333 0 94.293-76.373 170.667-170.667 170.667z" />
<glyph unicode="&#xe946;" glyph-name="info-circle" d="M469.333 640h85.333v-85.333h-85.333zM469.333 469.334h85.333v-256h-85.333zM512 853.334c-235.52 0-426.667-191.147-426.667-426.667s191.147-426.667 426.667-426.667 426.667 191.147 426.667 426.667-191.147 426.667-426.667 426.667zM512 85.334c-188.16 0-341.333 153.173-341.333 341.333s153.173 341.333 341.333 341.333 341.333-153.173 341.333-341.333-153.173-341.333-341.333-341.333z" />
<glyph unicode="&#xe947;" glyph-name="launch" d="M810.667 128h-597.333v597.333h298.667v85.333h-298.667c-47.36 0-85.333-38.4-85.333-85.333v-597.333c0-46.933 37.973-85.333 85.333-85.333h597.333c46.933 0 85.333 38.4 85.333 85.333v298.667h-85.333v-298.667zM597.333 810.667v-85.333h153.173l-419.413-419.413 60.16-60.16 419.413 419.413v-153.173h85.333v298.667h-298.667z" />
<glyph unicode="&#xe948;" glyph-name="layers" d="M511.573 147.627l-314.453 244.48-69.12-53.76 384-298.667 384 298.667-69.547 54.187zM512 256l384 298.667-384 298.667-384-298.667 69.547-54.187 314.453-244.48zM512 745.387l244.907-190.72-244.907-190.72-244.907 190.72 244.907 190.72z" />
<glyph unicode="&#xe949;" glyph-name="layers-clear" d="M512 745.387l244.907-190.72-80.64-62.72 61.013-60.587 158.72 123.307-384 298.667-110.507-86.187 60.587-60.587zM896 338.347l-69.547 54.187-28.587-22.187 61.013-61.013zM145.493 901.974l-60.16-60.16 180.053-180.053-137.387-107.093 384-298.667 89.6 69.547 60.587-60.587-150.613-117.333-314.453 244.48-69.12-53.76 384-298.667 211.2 164.267 161.28-161.28 60.16 60.16-799.147 799.147zM512 363.947l-244.907 190.72 59.307 46.080 214.187-214.187-28.587-22.613z" />
<glyph unicode="&#xe94a;" glyph-name="light-mode" d="M512 554.667c70.4 0 128-57.6 128-128s-57.6-128-128-128-128 57.6-128 128 57.6 128 128 128zM512 640c-117.76 0-213.333-95.573-213.333-213.333s95.573-213.333 213.333-213.333 213.333 95.573 213.333 213.333-95.573 213.333-213.333 213.333v0zM85.333 384h85.333c23.467 0 42.667 19.2 42.667 42.667s-19.2 42.667-42.667 42.667h-85.333c-23.467 0-42.667-19.2-42.667-42.667s19.2-42.667 42.667-42.667zM853.333 384h85.333c23.467 0 42.667 19.2 42.667 42.667s-19.2 42.667-42.667 42.667h-85.333c-23.467 0-42.667-19.2-42.667-42.667s19.2-42.667 42.667-42.667zM469.333 853.334v-85.333c0-23.467 19.2-42.667 42.667-42.667s42.667 19.2 42.667 42.667v85.333c0 23.467-19.2 42.667-42.667 42.667s-42.667-19.2-42.667-42.667zM469.333 85.334v-85.333c0-23.467 19.2-42.667 42.667-42.667s42.667 19.2 42.667 42.667v85.333c0 23.467-19.2 42.667-42.667 42.667s-42.667-19.2-42.667-42.667zM255.573 743.254c-16.64 16.64-43.947 16.64-60.16 0-16.64-16.64-16.64-43.947 0-60.16l45.227-45.227c16.64-16.64 43.947-16.64 60.16 0s16.64 43.947 0 60.16l-45.227 45.227zM783.36 215.467c-16.64 16.64-43.947 16.64-60.16 0-16.64-16.64-16.64-43.947 0-60.16l45.227-45.227c16.64-16.64 43.947-16.64 60.16 0 16.64 16.64 16.64 43.947 0 60.16l-45.227 45.227zM828.587 683.094c16.64 16.64 16.64 43.947 0 60.16-16.64 16.64-43.947 16.64-60.16 0l-45.227-45.227c-16.64-16.64-16.64-43.947 0-60.16s43.947-16.64 60.16 0l45.227 45.227zM300.8 155.307c16.64 16.64 16.64 43.947 0 60.16-16.64 16.64-43.947 16.64-60.16 0l-45.227-45.227c-16.64-16.64-16.64-43.947 0-60.16s43.947-16.64 60.16 0l45.227 45.227z" />
<glyph unicode="&#xe94b;" glyph-name="link" d="M725.333 640h-170.667v-85.333h170.667c70.4 0 128-57.6 128-128s-57.6-128-128-128h-170.667v-85.333h170.667c117.76 0 213.333 95.573 213.333 213.333s-95.573 213.333-213.333 213.333zM469.333 298.667h-170.667c-70.4 0-128 57.6-128 128s57.6 128 128 128h170.667v85.333h-170.667c-117.76 0-213.333-95.573-213.333-213.333s95.573-213.333 213.333-213.333h170.667v85.333zM341.333 469.334h341.333v-85.333h-341.333z" />
<glyph unicode="&#xe94c;" glyph-name="fire" d="M831.147 411.734c-66.987 174.080-305.493 183.467-247.893 436.48 4.267 18.773-15.787 33.28-32 23.467-154.88-91.307-266.24-274.347-172.8-514.133 7.68-19.627-15.36-37.973-32-25.173-77.227 58.453-85.333 142.507-78.507 202.667 2.56 22.187-26.453 32.853-38.827 14.507-29.013-44.373-58.453-116.053-58.453-224 16.213-238.933 218.027-312.32 290.56-321.707 103.68-13.227 215.893 5.973 296.533 79.787 88.747 82.347 121.173 213.76 73.387 328.107zM435.2 197.12c61.44 14.933 93.013 59.307 101.547 98.56 14.080 61.013-40.96 120.747-3.84 217.173 14.080-79.787 139.52-129.707 139.52-216.747 3.413-107.947-113.493-200.533-237.227-98.987z" />
<glyph unicode="&#xe94d;" glyph-name="tag" d="M913.493 444.587l-384 384c-15.36 15.36-36.693 24.747-60.16 24.747h-298.667c-46.933 0-85.333-38.4-85.333-85.333v-298.667c0-23.467 9.387-44.8 25.173-60.587l384-384c15.36-15.36 36.693-24.747 60.16-24.747s44.8 9.387 60.16 25.173l298.667 298.667c15.787 15.36 25.173 36.693 25.173 60.16s-9.813 45.227-25.173 60.587zM554.667 84.907l-384 384.427v298.667h298.667v0.427l384-384-298.667-299.52zM341.333 661.334c0-35.346-28.654-64-64-64s-64 28.654-64 64c0 35.346 28.654 64 64 64s64-28.654 64-64z" />
<glyph unicode="&#xe94e;" glyph-name="login" d="M469.333 640l-59.733-59.733 110.933-110.933h-435.2v-85.333h435.2l-110.933-110.933 59.733-59.733 213.333 213.333-213.333 213.333zM853.333 128h-341.333v-85.333h341.333c46.933 0 85.333 38.4 85.333 85.333v597.333c0 46.933-38.4 85.333-85.333 85.333h-341.333v-85.333h341.333v-597.333z" />
<glyph unicode="&#xe94f;" glyph-name="logout" d="M725.333 597.334l-60.16-60.16 67.413-67.84h-348.587v-85.333h348.587l-67.413-67.413 60.16-60.587 170.667 170.667-170.667 170.667zM213.333 725.334h298.667v85.333h-298.667c-46.933 0-85.333-38.4-85.333-85.333v-597.333c0-46.933 38.4-85.333 85.333-85.333h298.667v85.333h-298.667v597.333z" />
<glyph unicode="&#xe950;" glyph-name="manage-account" d="M170.667 170.667v27.733c0 14.507 6.827 28.16 17.493 34.56 72.107 43.093 154.453 65.707 238.507 65.707 1.28 0 2.133 0 3.413-0.427 4.267 29.867 12.8 58.453 25.173 84.48-9.387 0.853-18.773 1.28-28.587 1.28-103.253 0-199.68-28.587-282.027-77.653-37.547-22.187-59.307-64-59.307-107.947v-113.067h395.093c-17.92 25.6-32 54.613-41.387 85.333h-268.373zM426.667 426.667c94.293 0 170.667 76.373 170.667 170.667s-76.373 170.667-170.667 170.667c-94.293 0-170.667-76.373-170.667-170.667s76.373-170.667 170.667-170.667zM426.667 682.667c46.933 0 85.333-38.4 85.333-85.333s-38.4-85.333-85.333-85.333c-46.933 0-85.333 38.4-85.333 85.333s38.4 85.333 85.333 85.333zM885.333 256c0 9.387-1.28 17.92-2.56 26.88l48.64 43.093-42.667 73.813-61.867-20.907c-13.653 11.52-29.013 20.48-46.080 26.88l-12.8 63.573h-85.333l-12.8-63.573c-17.067-6.4-32.427-15.36-46.080-26.88l-61.867 20.907-42.667-73.813 48.64-43.093c-1.28-8.96-2.56-17.493-2.56-26.88s1.28-17.92 2.56-26.88l-48.64-43.093 42.667-73.813 61.867 20.907c13.653-11.52 29.013-20.48 46.080-26.88l12.8-63.573h85.333l12.8 63.573c17.067 6.4 32.427 15.36 46.080 26.88l61.867-20.907 42.667 73.813-48.64 43.093c1.28 8.96 2.56 17.493 2.56 26.88zM725.333 170.667c-46.933 0-85.333 38.4-85.333 85.333s38.4 85.333 85.333 85.333 85.333-38.4 85.333-85.333-38.4-85.333-85.333-85.333z" />
<glyph unicode="&#xe951;" glyph-name="map" d="M874.667 810.667l-6.827-1.28-227.84-88.32-256 89.6-240.64-81.067c-8.96-2.987-15.36-10.667-15.36-20.48v-645.12c0-11.947 9.387-21.333 21.333-21.333l6.827 1.28 227.84 88.32 256-89.6 240.64 81.067c8.96 2.987 15.36 10.667 15.36 20.48v645.12c0 11.947-9.387 21.333-21.333 21.333zM426.667 705.28l170.667-59.733v-497.493l-170.667 59.733v497.493zM213.333 663.040l128 43.093v-499.2l-128-49.493v505.6zM810.667 190.294l-128-43.093v498.773l128 49.493v-505.173z" />
<glyph unicode="&#xe952;" glyph-name="mic" d="M512 341.334c70.827 0 128 57.173 128 128v256c0 70.827-57.173 128-128 128s-128-57.173-128-128v-256c0-70.827 57.173-128 128-128zM725.333 469.334c0-117.76-95.573-213.333-213.333-213.333s-213.333 95.573-213.333 213.333h-85.333c0-150.613 111.36-274.347 256-295.253v-131.413h85.333v131.413c144.64 20.907 256 144.64 256 295.253h-85.333z" />
<glyph unicode="&#xe953;" glyph-name="mms" d="M853.333 853.334h-682.667c-46.933 0-85.333-38.4-85.333-85.333v-768l170.667 170.667h597.333c46.933 0 85.333 38.4 85.333 85.333v512c0 46.933-38.4 85.333-85.333 85.333zM853.333 256h-632.747l-49.92-49.92v561.92h682.667v-512zM618.667 597.334l-149.333-192.427-106.667 128.427-149.333-192h597.333z" />
<glyph unicode="&#xe954;" glyph-name="money-circle" d="M512 853.334c-235.52 0-426.667-191.147-426.667-426.667s191.147-426.667 426.667-426.667 426.667 191.147 426.667 426.667-191.147 426.667-426.667 426.667zM512 85.334c-188.16 0-341.333 153.173-341.333 341.333s153.173 341.333 341.333 341.333 341.333-153.173 341.333-341.333-153.173-341.333-341.333-341.333zM525.227 463.36c-75.52 19.2-99.84 40.107-99.84 71.253 0 35.84 33.707 61.013 89.6 61.013 58.88 0 81.067-28.16 82.773-69.973h72.96c-2.133 57.173-37.12 109.653-106.24 126.72v72.96h-99.413v-72.107c-64.427-13.653-116.053-55.467-116.053-119.893 0-76.373 63.573-114.773 156.16-136.96 83.2-19.627 99.84-49.067 99.84-79.787 0-22.613-16.64-59.307-89.6-59.307-68.267 0-95.147 30.72-98.987 69.973h-73.387c4.267-72.533 58.027-113.493 122.027-126.72v-72.533h99.84v71.253c64.853 12.373 116.053 49.493 116.48 118.187-0.427 93.867-81.067 126.293-156.16 145.92z" />
<glyph unicode="&#xe958;" glyph-name="movie-2" d="M170.667 662.614l75.093-150.613h607.573v-341.333h-682.667v491.947zM938.667 768h-170.667l85.333-170.667h-128l-85.333 170.667h-85.333l85.333-170.667h-128l-85.333 170.667h-85.333l85.333-170.667h-128l-85.333 170.667h-42.667c-46.933 0-84.907-38.4-84.907-85.333l-0.427-512c0-46.933 38.4-85.333 85.333-85.333h682.667c46.933 0 85.333 38.4 85.333 85.333v597.333z" />
<glyph unicode="&#xe95b;" glyph-name="password" d="M85.333 213.334h853.333v-85.333h-853.333v85.333zM134.4 386.134l36.267 63.147 36.267-63.147 55.467 32-36.267 63.147h72.533v64h-72.533l36.267 62.72-55.467 32-36.267-62.72-36.267 62.72-55.467-32 36.267-62.72h-72.533v-64h72.533l-36.267-63.147 55.467-32zM420.267 418.134l55.467-32 36.267 63.147 36.267-63.147 55.467 32-36.267 63.147h72.533v64h-72.533l36.267 62.72-55.467 32-36.267-62.72-36.267 62.72-55.467-32 36.267-62.72h-72.533v-64h72.533l-36.267-63.147zM981.333 545.28h-72.533l36.267 62.72-55.467 32-36.267-62.72-36.267 62.72-55.467-32 36.267-62.72h-72.533v-64h72.533l-36.267-63.147 55.467-32 36.267 63.147 36.267-63.147 55.467 32-36.267 63.147h72.533v64z" />
<glyph unicode="&#xe95c;" glyph-name="person-add" d="M640 426.667c94.293 0 170.667 76.373 170.667 170.667s-76.373 170.667-170.667 170.667-170.667-76.373-170.667-170.667 76.373-170.667 170.667-170.667zM640 682.667c46.933 0 85.333-38.4 85.333-85.333s-38.4-85.333-85.333-85.333-85.333 38.4-85.333 85.333 38.4 85.333 85.333 85.333zM640 341.334c-113.92 0-341.333-57.173-341.333-170.667v-85.333h682.667v85.333c0 113.493-227.413 170.667-341.333 170.667zM384 170.667c9.387 30.72 141.227 85.333 256 85.333 115.2 0 247.467-55.040 256-85.333h-512zM256 298.667v128h128v85.333h-128v128h-85.333v-128h-128v-85.333h128v-128z" />
<glyph unicode="&#xe95d;" glyph-name="person-pin" d="M810.667 853.334h-597.333c-47.36 0-85.333-38.4-85.333-85.333v-597.333c0-46.933 37.973-85.333 85.333-85.333h170.667l128-128 128 128h170.667c46.933 0 85.333 38.4 85.333 85.333v597.333c0 46.933-38.4 85.333-85.333 85.333zM810.667 170.667h-206.080l-92.587-92.587-92.587 92.587h-206.080v597.333h597.333v-597.333zM512 469.334c70.4 0 128 57.6 128 128s-57.6 128-128 128-128-57.6-128-128 57.6-128 128-128zM512 640c23.467 0 42.667-19.2 42.667-42.667s-19.2-42.667-42.667-42.667-42.667 19.2-42.667 42.667 19.2 42.667 42.667 42.667zM768 273.92c0 106.667-169.387 152.747-256 152.747s-256-46.080-256-152.747v-60.587h512v60.587zM361.813 298.667c31.573 21.76 95.147 42.667 150.187 42.667s118.613-20.907 150.187-42.667h-300.373z" />
<glyph unicode="&#xe95e;" glyph-name="mobile-phone" d="M661.333 896h-341.333c-58.88 0-106.667-47.787-106.667-106.667v-725.333c0-58.88 47.787-106.667 106.667-106.667h341.333c58.88 0 106.667 47.787 106.667 106.667v725.333c0 58.88-47.787 106.667-106.667 106.667zM490.667-0c-35.413 0-64 28.587-64 64s28.587 64 64 64 64-28.587 64-64-28.587-64-64-64zM682.667 170.667h-384v597.333h384v-597.333z" />
<glyph unicode="&#xe95f;" glyph-name="mobile-manage" d="M298.667 810.667v-128h85.333v85.333h426.667v-682.667h-426.667v85.333h-85.333v-128c0-46.933 38.4-85.333 85.333-85.333h426.667c46.933 0 85.333 38.4 85.333 85.333v768c0 46.933-38.4 85.333-85.333 85.333h-426.667c-46.933 0-85.333-38.4-85.333-85.333zM405.333 277.334c12.373 5.12 23.467 12.373 34.133 20.48l-0.853-1.28 43.093-16.64c9.813-3.84 20.907 0 26.027 9.387l35.84 62.293c5.12 8.96 2.987 20.907-5.12 27.307l-36.267 29.013-0.853-1.28c0.853 6.827 2.133 13.653 2.133 20.48s-1.28 13.653-2.133 20.48l0.853-1.28 36.267 29.013c8.107 6.4 10.24 18.347 5.12 27.307l-35.84 62.293c-5.12 8.96-16.213 13.227-26.027 9.387l-43.093-16.64 0.853-1.28c-10.667 7.253-21.76 14.507-34.133 19.627l-7.253 46.080c-1.28 10.24-10.24 17.92-20.907 17.92h-71.68c-10.667 0-19.627-7.68-20.907-17.92l-7.253-46.080c-12.373-5.12-23.467-12.373-34.133-20.48l0.853 1.28-43.52 16.64c-9.813 3.84-20.907 0-26.027-9.387l-35.84-62.293c-5.12-8.96-2.987-20.907 5.12-27.307l36.267-29.013 0.853 1.28c-0.853-6.4-2.133-13.227-2.133-20.053s1.28-13.653 2.133-20.48l-0.853 1.28-36.267-29.013c-8.107-6.4-10.24-18.347-5.12-27.307l35.84-62.293c5.12-8.96 16.213-13.227 26.027-9.387l43.093 16.64-0.427 1.707c10.667-8.107 21.76-15.36 34.133-20.48l7.253-45.653c1.28-10.667 10.24-18.347 20.907-18.347h71.68c10.667 0 19.627 7.68 20.907 17.92l7.253 46.080zM256 426.667c0 46.933 38.4 85.333 85.333 85.333s85.333-38.4 85.333-85.333-38.4-85.333-85.333-85.333-85.333 38.4-85.333 85.333z" />
<glyph unicode="&#xe960;" glyph-name="photo-camera" d="M602.453 768l78.080-85.333h172.8v-512h-682.667v512h172.8l78.080 85.333h180.907zM640 853.334h-256l-78.080-85.333h-135.253c-46.933 0-85.333-38.4-85.333-85.333v-512c0-46.933 38.4-85.333 85.333-85.333h682.667c46.933 0 85.333 38.4 85.333 85.333v512c0 46.933-38.4 85.333-85.333 85.333h-135.253l-78.080 85.333zM512 554.667c70.4 0 128-57.6 128-128s-57.6-128-128-128-128 57.6-128 128 57.6 128 128 128zM512 640c-117.76 0-213.333-95.573-213.333-213.333s95.573-213.333 213.333-213.333 213.333 95.573 213.333 213.333-95.573 213.333-213.333 213.333z" />
<glyph unicode="&#xe961;" glyph-name="photo-library" d="M853.333 768v-512h-512v512h512zM853.333 853.334h-512c-46.933 0-85.333-38.4-85.333-85.333v-512c0-46.933 38.4-85.333 85.333-85.333h512c46.933 0 85.333 38.4 85.333 85.333v512c0 46.933-38.4 85.333-85.333 85.333zM490.667 440.747l72.107-96.427 105.813 132.267 142.080-177.92h-426.667zM85.333 682.667v-597.333c0-46.933 38.4-85.333 85.333-85.333h597.333v85.333h-597.333v597.333h-85.333z" />
<glyph unicode="&#xe962;" glyph-name="pin" d="M853.333 768h-682.667c-46.933 0-85.333-38.4-85.333-85.333v-512c0-46.933 38.4-85.333 85.333-85.333h682.667c46.933 0 85.333 38.4 85.333 85.333v512c0 46.933-38.4 85.333-85.333 85.333zM853.333 170.667h-682.667v512h682.667v-512zM276.907 490.667v-192h49.067v256h-37.12l-75.093-54.187 24.747-37.973zM489.387 509.867c21.333 0 34.56-13.653 34.56-30.72 0-15.787-5.973-27.307-23.040-45.227-15.36-16.213-45.227-46.080-90.88-91.733v-43.52h165.973v42.24h-101.12l-1.28 2.133c29.013 29.013 49.067 48.64 59.733 59.307 26.027 25.6 39.253 52.053 39.253 79.36 0 10.24-2.133 44.373-38.827 63.147-20.053 9.813-53.76 15.36-83.2 1.28-34.987-16.64-42.24-48.213-42.667-49.067l43.093-17.92c4.267 14.080 16.213 30.72 38.4 30.72zM724.907 343.894c-35.413 0-42.24 32.427-43.52 36.693l-43.947-17.493c19.2-67.84 85.76-64.427 87.467-64.427 51.2 0 71.68 30.72 75.093 36.267 13.653 20.907 15.36 52.907-0.427 75.093-7.253 10.24-17.067 17.493-29.013 22.187v2.987c8.533 4.267 15.787 11.093 22.187 20.48 11.093 17.493 13.227 45.653-0.853 66.987-3.413 4.693-22.613 32-69.12 32-53.76 0-74.24-38.4-78.933-52.907l42.24-17.493c4.693 13.653 14.933 27.307 36.267 27.307 18.773 0 32-11.093 32-27.733 0-24.747-23.467-30.72-37.547-30.72h-19.627v-42.667h21.333c23.893 0 44.373-10.24 44.373-33.707 0-20.907-20.48-32.853-37.973-32.853z" />
<glyph unicode="&#xe963;" glyph-name="play-circle" d="M426.667 234.667l256 192-256 192zM512 853.334c-235.52 0-426.667-191.147-426.667-426.667s191.147-426.667 426.667-426.667 426.667 191.147 426.667 426.667-191.147 426.667-426.667 426.667zM512 85.334c-188.16 0-341.333 153.173-341.333 341.333s153.173 341.333 341.333 341.333 341.333-153.173 341.333-341.333-153.173-341.333-341.333-341.333z" />
<glyph unicode="&#xe964;" glyph-name="power" d="M554.667 810.667h-85.333v-426.667h85.333v426.667zM760.747 718.080l-60.587-60.587c67.413-54.187 110.507-137.387 110.507-230.827 0-165.12-133.547-298.667-298.667-298.667s-298.667 133.547-298.667 298.667c0 93.44 43.093 176.64 110.080 231.253l-60.16 60.16c-82.773-70.4-135.253-174.507-135.253-291.413 0-212.053 171.947-384 384-384s384 171.947 384 384c0 116.907-52.48 221.013-135.253 291.413z" />
<glyph unicode="&#xe965;" glyph-name="refresh" d="M753.067 667.734c-61.867 61.867-146.773 100.267-241.067 100.267-188.587 0-340.907-152.747-340.907-341.333s152.32-341.333 340.907-341.333c159.147 0 291.84 108.8 329.813 256h-88.747c-34.987-99.413-129.707-170.667-241.067-170.667-141.227 0-256 114.773-256 256s114.773 256 256 256c70.827 0 133.973-29.44 180.053-75.947l-137.387-137.387h298.667v298.667l-100.267-100.267z" />
<glyph unicode="&#xe966;" glyph-name="reorder" d="M128 298.667h768v85.333h-768v-85.333zM128 128h768v85.333h-768v-85.333zM128 469.334h768v85.333h-768v-85.333zM128 725.334v-85.333h768v85.333h-768z" />
<glyph unicode="&#xe967;" glyph-name="room" d="M512 853.334c-165.12 0-298.667-133.547-298.667-298.667 0-224 298.667-554.667 298.667-554.667s298.667 330.667 298.667 554.667c0 165.12-133.547 298.667-298.667 298.667zM298.667 554.667c0 117.76 95.573 213.333 213.333 213.333s213.333-95.573 213.333-213.333c0-122.88-122.88-306.773-213.333-421.547-88.747 113.92-213.333 299.947-213.333 421.547zM618.667 554.667c0-58.91-47.756-106.667-106.667-106.667s-106.667 47.756-106.667 106.667c0 58.91 47.756 106.667 106.667 106.667s106.667-47.756 106.667-106.667z" />
<glyph unicode="&#xe968;" glyph-name="room-service" d="M809.813 213.334h-724.48v-85.333h853.333v85.333zM896 256c-11.52 173.653-138.667 315.733-305.493 350.293 4.267 10.24 6.827 21.76 6.827 33.707 0 46.933-38.4 85.333-85.333 85.333s-85.333-38.4-85.333-85.333c0-11.947 2.56-23.467 6.827-33.707-166.827-34.56-293.973-176.64-305.493-350.293h768zM512 529.92c125.867 0 233.387-78.080 277.333-188.16h-554.667c43.947 110.080 151.467 188.16 277.333 188.16z" />
<glyph unicode="&#xe969;" glyph-name="rss" d="M356.693 178.347c0-51.37-41.643-93.013-93.013-93.013s-93.013 41.643-93.013 93.013c0 51.37 41.643 93.013 93.013 93.013s93.013-41.643 93.013-93.013zM170.667 749.227v-120.747c299.947 0 543.147-243.2 543.147-543.147h120.747c0 366.507-297.387 663.893-663.893 663.893zM170.667 507.734v-120.747c166.4 0 301.653-135.253 301.653-301.653h120.747c0 233.387-189.013 422.4-422.4 422.4z" />
<glyph unicode="&#xe96a;" glyph-name="search" d="M661.333 341.334h-33.707l-11.947 11.52c41.813 48.64 66.987 111.787 66.987 180.48 0 153.173-124.16 277.333-277.333 277.333s-277.333-124.16-277.333-277.333 124.16-277.333 277.333-277.333c68.693 0 131.84 25.173 180.48 66.987l11.52-11.947v-33.707l213.333-212.907 63.573 63.573-212.907 213.333zM405.333 341.334c-106.24 0-192 85.76-192 192s85.76 192 192 192 192-85.76 192-192-85.76-192-192-192z" />
<glyph unicode="&#xe96b;" glyph-name="emoticon-2" d="M725.333 533.334c0-35.346-28.654-64-64-64s-64 28.654-64 64c0 35.346 28.654 64 64 64s64-28.654 64-64zM426.667 533.334c0-35.346-28.654-64-64-64s-64 28.654-64 64c0 35.346 28.654 64 64 64s64-28.654 64-64zM512 256c-63.147 0-117.333 34.56-147.2 85.333h-71.253c34.133-87.467 119.040-149.333 218.453-149.333s184.32 61.867 218.453 149.333h-71.253c-29.867-50.773-84.053-85.333-147.2-85.333zM511.573 853.334c-235.52 0-426.24-191.147-426.24-426.667s190.72-426.667 426.24-426.667c235.947 0 427.093 191.147 427.093 426.667s-191.147 426.667-427.093 426.667zM512 85.334c-188.587 0-341.333 152.747-341.333 341.333s152.747 341.333 341.333 341.333 341.333-152.747 341.333-341.333-152.747-341.333-341.333-341.333z" />
<glyph unicode="&#xe96c;" glyph-name="settings" d="M829.013 384.854c1.707 13.653 2.987 27.307 2.987 41.813s-1.28 28.16-2.987 41.813l90.027 70.4c8.107 6.4 10.24 17.92 5.12 27.307l-85.333 147.627c-3.84 6.827-11.093 10.667-18.773 10.667-2.56 0-5.12-0.427-7.253-1.28l-106.24-42.667c-22.187 17.067-46.080 31.147-72.107 41.813l-16.213 113.067c-1.28 10.24-10.24 17.92-20.907 17.92h-170.667c-10.667 0-19.627-7.68-20.907-17.92l-16.213-113.067c-26.027-10.667-49.92-25.173-72.107-41.813l-106.24 42.667c-2.56 0.853-5.12 1.28-7.68 1.28-7.253 0-14.507-3.84-18.347-10.667l-85.333-147.627c-5.547-9.387-2.987-20.907 5.12-27.307l90.027-70.4c-1.707-13.653-2.987-27.733-2.987-41.813s1.28-28.16 2.987-41.813l-90.027-70.4c-8.107-6.4-10.24-17.92-5.12-27.307l85.333-147.627c3.84-6.827 11.093-10.667 18.773-10.667 2.56 0 5.12 0.427 7.253 1.28l106.24 42.667c22.187-17.067 46.080-31.147 72.107-41.813l16.213-113.067c1.28-10.24 10.24-17.92 20.907-17.92h170.667c10.667 0 19.627 7.68 20.907 17.92l16.213 113.067c26.027 10.667 49.92 25.173 72.107 41.813l106.24-42.667c2.56-0.853 5.12-1.28 7.68-1.28 7.253 0 14.507 3.84 18.347 10.667l85.333 147.627c5.12 9.387 2.987 20.907-5.12 27.307l-90.027 70.4zM744.533 457.814c1.707-13.227 2.133-22.187 2.133-31.147s-0.853-18.347-2.133-31.147l-5.973-48.213 37.973-29.867 46.080-35.84-29.867-51.627-54.187 21.76-44.373 17.92-38.4-29.013c-18.347-13.653-35.84-23.893-53.333-31.147l-45.227-18.347-6.827-48.213-8.533-57.6h-59.733l-8.107 57.6-6.827 48.213-45.227 18.347c-18.347 7.68-35.413 17.493-52.48 30.293l-38.827 29.867-45.227-18.347-54.187-21.76-29.867 51.627 46.080 35.84 37.973 29.867-5.973 48.213c-1.28 13.227-2.133 23.040-2.133 31.573s0.853 18.347 2.133 31.147l5.973 48.213-37.973 29.867-46.080 35.84 29.867 51.627 54.187-21.76 44.373-17.92 38.4 29.013c18.347 13.653 35.84 23.893 53.333 31.147l45.227 18.347 6.827 48.213 8.533 57.6h59.307l8.107-57.6 6.827-48.213 45.227-18.347c18.347-7.68 35.413-17.493 52.48-30.293l38.827-29.867 45.227 18.347 54.187 21.76 29.867-51.627-45.653-36.267-37.973-29.867 5.973-48.213zM512 597.334c-94.293 0-170.667-76.373-170.667-170.667s76.373-170.667 170.667-170.667 170.667 76.373 170.667 170.667-76.373 170.667-170.667 170.667zM512 341.334c-46.933 0-85.333 38.4-85.333 85.333s38.4 85.333 85.333 85.333 85.333-38.4 85.333-85.333-38.4-85.333-85.333-85.333z" />
<glyph unicode="&#xe96d;" glyph-name="code-2" d="M331.52 650.24l-65.707 54.613-230.827-278.187 230.827-278.187 65.707 54.613-185.6 223.573 185.6 223.573zM298.667 384h85.333v85.333h-85.333v-85.333zM725.333 469.334h-85.333v-85.333h85.333v85.333zM469.333 384h85.333v85.333h-85.333v-85.333zM758.187 704.854l-65.707-54.613 185.6-223.573-185.6-223.573 65.707-54.613 230.827 278.187-230.827 278.187z" />
<glyph unicode="&#xe96e;" glyph-name="share" d="M768 252.587c-32.427 0-61.44-12.8-83.627-32.853l-304.213 177.067c2.133 9.813 3.84 19.627 3.84 29.867s-1.707 20.053-3.84 29.867l300.8 175.36c23.040-21.333 53.333-34.56 87.040-34.56 70.827 0 128 57.173 128 128s-57.173 128-128 128-128-57.173-128-128c0-10.24 1.707-20.053 3.84-29.867l-300.8-175.36c-23.040 21.333-53.333 34.56-87.040 34.56-70.827 0-128-57.173-128-128s57.173-128 128-128c33.707 0 64 13.227 87.040 34.56l303.787-177.493c-2.133-8.96-3.413-18.347-3.413-27.733 0-68.693 55.893-124.587 124.587-124.587s124.587 55.893 124.587 124.587c0 68.693-55.893 124.587-124.587 124.587zM768 768c23.467 0 42.667-19.2 42.667-42.667s-19.2-42.667-42.667-42.667-42.667 19.2-42.667 42.667 19.2 42.667 42.667 42.667zM256 384c-23.467 0-42.667 19.2-42.667 42.667s19.2 42.667 42.667 42.667 42.667-19.2 42.667-42.667-19.2-42.667-42.667-42.667zM768 84.48c-23.467 0-42.667 19.2-42.667 42.667s19.2 42.667 42.667 42.667 42.667-19.2 42.667-42.667-19.2-42.667-42.667-42.667z" />
<glyph unicode="&#xe96f;" glyph-name="shield" d="M512 853.334l-341.333-128v-259.84c0-215.467 145.493-416.427 341.333-465.493 195.84 49.067 341.333 250.027 341.333 465.493v259.84l-341.333 128zM768 465.494c0-170.667-108.8-328.533-256-376.747-147.2 48.213-256 205.653-256 376.747v200.533l256 96 256-96v-200.533z" />
<glyph unicode="&#xe970;" glyph-name="shopping-cart" d="M663.467 384c32 0 60.16 17.493 74.667 43.947l152.747 276.907c15.787 28.16-4.693 63.147-37.12 63.147h-631.467l-40.107 85.333h-139.52v-85.333h85.333l153.6-323.84-57.6-104.107c-31.147-57.173 9.813-126.72 74.667-126.72h512v85.333h-512l46.933 85.333h317.867zM262.827 682.667h518.4l-117.76-213.333h-299.52l-101.12 213.333zM298.667 170.667c-46.933 0-84.907-38.4-84.907-85.333s37.973-85.333 84.907-85.333 85.333 38.4 85.333 85.333-38.4 85.333-85.333 85.333zM725.333 170.667c-46.933 0-84.907-38.4-84.907-85.333s37.973-85.333 84.907-85.333 85.333 38.4 85.333 85.333-38.4 85.333-85.333 85.333z" />
<glyph unicode="&#xe972;" glyph-name="chat" d="M853.333 853.334h-682.667c-46.933 0-85.333-38.4-85.333-85.333v-768l170.667 170.667h597.333c46.933 0 85.333 38.4 85.333 85.333v512c0 46.933-38.4 85.333-85.333 85.333zM853.333 256h-632.747l-49.92-49.92v561.92h682.667v-512zM298.667 554.667h85.333v-85.333h-85.333zM640 554.667h85.333v-85.333h-85.333zM469.333 554.667h85.333v-85.333h-85.333z" />
<glyph unicode="&#xe973;" glyph-name="sticky-note" d="M810.667 725.334v-384h-213.333v-213.333h-384v597.333h597.333zM810.667 810.667h-597.333c-46.933 0-85.333-38.4-85.333-85.333v-597.333c0-46.933 38.4-85.333 85.333-85.333h426.667l256 256v426.667c0 46.933-38.4 85.333-85.333 85.333zM512 341.334h-213.333v85.333h213.333v-85.333zM725.333 512h-426.667v85.333h426.667v-85.333z" />
<glyph unicode="&#xe974;" glyph-name="store" d="M934.4 559.36l-44.8 186.453c-9.387 38.4-42.667 64.853-81.493 64.853h-592.64c-38.4 0-72.107-26.88-81.067-64.853l-44.8-186.453c-10.24-43.52-0.853-87.893 26.453-122.88 3.413-4.693 8.107-8.107 11.947-12.373v-296.107c0-46.933 38.4-85.333 85.333-85.333h597.333c46.933 0 85.333 38.4 85.333 85.333v296.107c3.84 3.84 8.533 7.68 11.947 11.947 27.307 34.987 37.12 79.787 26.453 123.307zM806.827 725.76l44.8-186.453c4.267-17.92 0.427-35.84-10.667-49.92-5.973-7.68-18.773-20.053-40.107-20.053-26.027 0-48.64 20.907-51.627 48.64l-24.747 207.36 82.347 0.427zM554.667 725.334h83.627l23.040-192.853c2.133-16.64-2.987-33.28-14.080-45.653-9.387-11.093-23.040-17.493-40.533-17.493-28.587 0-52.053 25.173-52.053 55.893v200.107zM362.24 532.48l23.467 192.853h83.627v-200.107c0-30.72-23.467-55.893-55.040-55.893-14.507 0-27.733 6.4-37.973 17.493-10.667 12.373-15.787 29.013-14.080 45.653zM172.373 539.307l43.093 186.027h84.053l-24.747-207.36c-3.413-27.733-25.6-48.64-51.627-48.64-20.907 0-34.133 12.373-39.68 20.053-11.52 13.653-15.36 32-11.093 49.92zM213.333 128v257.28c3.413-0.427 6.4-1.28 9.813-1.28 37.12 0 70.827 15.36 95.573 40.533 25.6-25.6 59.733-40.533 98.56-40.533 37.12 0 70.4 15.36 95.147 39.68 25.173-24.32 59.307-39.68 97.707-39.68 35.84 0 69.973 14.933 95.573 40.533 24.747-25.173 58.453-40.533 95.573-40.533 3.413 0 6.4 0.853 9.813 1.28v-257.28h-597.76z" />
<glyph unicode="&#xe975;" glyph-name="users-circle" d="M533.333 512c0 70.4-57.6 128-128 128s-128-57.6-128-128 57.6-128 128-128 128 57.6 128 128zM405.333 469.334c-23.467 0-42.667 19.2-42.667 42.667s19.2 42.667 42.667 42.667 42.667-19.2 42.667-42.667-19.2-42.667-42.667-42.667zM682.667 384c47.36 0 85.333 37.973 85.333 85.333s-37.973 85.333-85.333 85.333c-47.36 0-85.76-37.973-85.333-85.333 0-47.36 37.973-85.333 85.333-85.333zM511.573 852.907c-235.52 0-426.667-191.147-426.667-426.667s191.147-426.667 426.667-426.667 426.667 191.147 426.667 426.667-191.147 426.667-426.667 426.667zM249.173 208.214c29.013 23.040 96.853 47.36 156.16 47.36 2.987 0 6.4-0.427 9.813-0.427 10.24 27.307 28.587 55.040 55.467 79.36-23.893 4.267-46.507 6.827-65.28 6.827-55.467 0-144.64-19.2-201.813-61.013-21.333 44.373-33.28 93.867-33.28 146.347 0 188.16 153.173 341.333 341.333 341.333s341.333-153.173 341.333-341.333c0-51.2-11.52-99.84-32-143.787-42.667 25.173-100.693 37.12-138.24 37.12-64.853 0-192-34.56-192-115.2v-118.613c-96.853 5.547-183.040 51.627-241.493 122.027z" />
<glyph unicode="&#xe976;" glyph-name="swap-circle" d="M512 853.334c-235.52 0-426.667-191.147-426.667-426.667s191.147-426.667 426.667-426.667 426.667 191.147 426.667 426.667-191.147 426.667-426.667 426.667zM512 85.334c-188.16 0-341.333 153.173-341.333 341.333s153.173 341.333 341.333 341.333 341.333-153.173 341.333-341.333-153.173-341.333-341.333-341.333zM640 661.334v-106.667h-170.667v-85.333h170.667v-106.667l149.333 149.333zM384 490.667l-149.333-149.333 149.333-149.333v106.667h170.667v85.333h-170.667z" />
<glyph unicode="&#xe977;" glyph-name="table-chart" d="M853.333 810.667h-640c-46.933 0-85.333-38.4-85.333-85.333v-597.333c0-46.933 38.4-85.333 85.333-85.333h640c46.933 0 85.333 38.4 85.333 85.333v597.333c0 46.933-38.4 85.333-85.333 85.333zM853.333 725.334v-128h-640v128h640zM640 128h-213.333v384h213.333v-384zM213.333 512h128v-384h-128v384zM725.333 128v384h128v-384h-128z" />
<glyph unicode="&#xe978;" glyph-name="thumb-down" d="M640 810.667h-384c-35.413 0-65.707-21.333-78.507-52.053l-128.853-300.8c-3.84-9.813-5.973-20.053-5.973-31.147v-85.333c0-46.933 38.4-85.333 85.333-85.333h269.227l-40.533-194.987-1.28-13.653c0-17.493 7.253-33.707 18.773-45.227l45.227-44.8 280.747 281.173c15.787 15.36 25.173 36.693 25.173 60.16v426.667c0 46.933-38.4 85.333-85.333 85.333zM640 298.667l-185.173-185.173 47.36 227.84h-374.187v85.333l128 298.667h384v-426.667zM810.667 810.667h170.667v-512h-170.667z" />
<glyph unicode="&#xe979;" glyph-name="thumb-up" d="M896 597.334h-269.227l40.533 194.987 1.28 13.653c0 17.493-7.253 33.707-18.773 45.227l-45.227 44.8-280.747-281.173c-15.787-15.36-25.173-36.693-25.173-60.16v-426.667c0-46.933 38.4-85.333 85.333-85.333h384c35.413 0 65.707 21.333 78.507 52.053l128.853 300.8c3.84 9.813 5.973 20.053 5.973 31.147v85.333c0 46.933-38.4 85.333-85.333 85.333zM896 426.667l-128-298.667h-384v426.667l185.173 185.173-47.36-227.84h374.187v-85.333zM42.667 554.667h170.667v-512h-170.667z" />
<glyph unicode="&#xe97a;" glyph-name="timer" d="M640 896h-256v-85.333h256v85.333zM469.333 341.334h85.333v256h-85.333v-256zM811.947 623.36l60.587 60.587c-18.347 21.76-38.4 42.24-60.16 60.16l-60.587-60.587c-66.133 52.907-149.333 84.48-239.787 84.48-212.053 0-384-171.947-384-384s171.52-384 384-384 384 171.947 384 384c0 90.453-31.573 173.653-84.053 239.36zM512 85.334c-165.12 0-298.667 133.547-298.667 298.667s133.547 298.667 298.667 298.667 298.667-133.547 298.667-298.667-133.547-298.667-298.667-298.667z" />
<glyph unicode="&#xe97b;" glyph-name="search-world" d="M823.467 217.6c17.067 29.867 29.867 64 29.867 102.4 0 106.667-85.333 192-192 192s-192-85.333-192-192 85.333-192 192-192c38.4 0 72.533 12.8 102.4 29.867l136.533-136.533 59.733 59.733-136.533 136.533zM661.333 213.334c-59.733 0-106.667 46.933-106.667 106.667s46.933 106.667 106.667 106.667 106.667-46.933 106.667-106.667-46.933-106.667-106.667-106.667zM512 85.334v-85.333c-235.52 0-426.667 191.147-426.667 426.667s191.147 426.667 426.667 426.667c206.507 0 378.453-146.773 418.133-341.333h-88.32c-27.307 104.96-102.4 190.72-201.813 230.827v-17.493c0-46.933-38.4-85.333-85.333-85.333h-85.333v-85.333c0-23.467-19.2-42.667-42.667-42.667h-85.333v-85.333h85.333v-128h-42.667l-204.373 204.373c-5.547-24.747-8.96-49.92-8.96-76.373 0-188.16 153.173-341.333 341.333-341.333z" />
<glyph unicode="&#xe97c;" glyph-name="settings-2" d="M128 213.334v-85.333h256v85.333h-256zM128 725.334v-85.333h426.667v85.333h-426.667zM554.667 42.667v85.333h341.333v85.333h-341.333v85.333h-85.333v-256h85.333zM298.667 554.667v-85.333h-170.667v-85.333h170.667v-85.333h85.333v256h-85.333zM896 384v85.333h-426.667v-85.333h426.667zM640 554.667h85.333v85.333h170.667v85.333h-170.667v85.333h-85.333v-256z" />
<glyph unicode="&#xe97d;" glyph-name="cube" d="M128 768c0 23.467 19.2 42.667 42.667 42.667h85.333v85.333h-85.333c-70.827 0-128-57.173-128-128v-85.333h85.333v85.333zM128 85.334v85.333h-85.333v-85.333c0-70.827 57.173-128 128-128h85.333v85.333h-85.333c-23.467 0-42.667 19.2-42.667 42.667zM853.333 896h-85.333v-85.333h85.333c23.467 0 42.667-19.2 42.667-42.667v-85.333h85.333v85.333c0 70.827-57.173 128-128 128zM896 85.334c0-23.467-19.2-42.667-42.667-42.667h-85.333v-85.333h85.333c70.827 0 128 57.173 128 128v85.333h-85.333v-85.333zM810.667 304.214v244.907c0 30.72-16.213 58.88-42.667 73.813l-213.333 122.88c-13.227 7.68-27.733 11.52-42.667 11.52s-29.44-3.84-42.667-11.52l-213.333-122.453c-26.453-15.36-42.667-43.52-42.667-74.24v-244.907c0-30.72 16.213-58.88 42.667-73.813l213.333-122.88c13.227-7.68 27.733-11.52 42.667-11.52s29.44 3.84 42.667 11.52l213.333 122.88c26.453 14.933 42.667 43.093 42.667 73.813zM469.333 206.080l-170.667 98.133v197.547l170.667-99.413v-196.267zM512 476.16l-168.96 98.56 168.96 97.28 168.96-97.28-168.96-98.56zM725.333 304.214l-170.667-98.133v196.267l170.667 99.413v-197.547z" />
<glyph unicode="&#xe97e;" glyph-name="visibility-on" d="M512 682.667c161.707 0 305.92-90.88 376.32-234.667-70.4-143.787-214.613-234.667-376.32-234.667s-305.92 90.88-376.32 234.667c70.4 143.787 214.613 234.667 376.32 234.667zM512 768c-213.333 0-395.52-132.693-469.333-320 73.813-187.307 256-320 469.333-320s395.52 132.693 469.333 320c-73.813 187.307-256 320-469.333 320zM512 554.667c58.88 0 106.667-47.787 106.667-106.667s-47.787-106.667-106.667-106.667-106.667 47.787-106.667 106.667 47.787 106.667 106.667 106.667zM512 640c-105.813 0-192-86.187-192-192s86.187-192 192-192 192 86.187 192 192-86.187 192-192 192z" />
<glyph unicode="&#xe97f;" glyph-name="visibility-off" d="M512 682.667c161.707 0 305.92-90.88 376.32-234.667-25.173-52.053-60.587-96.853-102.827-133.12l60.16-60.16c59.307 52.48 106.24 118.187 135.68 193.28-73.813 187.307-256 320-469.333 320-54.187 0-106.24-8.533-155.307-24.32l70.4-70.4c27.733 5.547 55.893 9.387 84.907 9.387zM466.347 634.027l88.32-88.32c24.32-10.667 43.947-30.293 54.613-54.613l88.32-88.32c3.413 14.507 5.973 29.867 5.973 45.653 0.427 105.813-85.76 191.573-191.573 191.573-15.787 0-30.72-2.133-45.653-5.973zM85.76 773.547l114.347-114.347c-69.547-54.613-124.587-127.147-157.44-211.2 73.813-187.307 256-320 469.333-320 64.853 0 127.147 12.373 184.32 34.987l145.92-145.92 60.16 60.16-756.48 756.907-60.16-60.587zM405.76 453.547l111.36-111.36c-1.707-0.427-3.413-0.853-5.12-0.853-58.88 0-106.667 47.787-106.667 106.667 0 2.133 0.427 3.413 0.427 5.547zM260.693 598.614l74.667-74.667c-9.813-23.467-15.36-49.067-15.36-75.947 0-105.813 86.187-192 192-192 26.88 0 52.48 5.547 75.52 15.36l41.813-41.813c-37.547-10.24-76.8-16.213-117.333-16.213-161.707 0-305.92 90.88-376.32 234.667 29.867 61.013 73.387 111.36 125.013 150.613z" />
<glyph unicode="&#xe980;" glyph-name="chat-video" d="M853.333 853.334h-682.667c-46.933 0-84.907-38.4-84.907-85.333l-0.427-768 170.667 170.667h597.333c46.933 0 85.333 38.4 85.333 85.333v512c0 46.933-38.4 85.333-85.333 85.333zM853.333 256h-632.747l-49.92-49.92v561.92h682.667v-512zM597.333 486.4l128-102.4v256l-128-102.4v102.4h-298.667v-256h298.667z" />
<glyph unicode="&#xe981;" glyph-name="key" d="M938.667 128h-256v170.667h-114.347c-48.64-103.253-153.6-170.667-269.653-170.667-164.693 0-298.667 133.973-298.667 298.667s133.973 298.667 298.667 298.667c116.053 0 220.587-67.413 269.653-170.667h455.68v-256h-85.333v-170.667zM768 213.334h85.333v170.667h85.333v85.333h-429.227l-9.813 28.587c-29.867 84.907-110.933 142.080-200.96 142.080-117.76 0-213.333-95.573-213.333-213.333s95.573-213.333 213.333-213.333c90.027 0 171.093 57.173 200.96 142.080l9.813 28.587h258.56v-170.667zM298.667 298.667c-70.4 0-128 57.6-128 128s57.6 128 128 128 128-57.6 128-128-57.6-128-128-128zM298.667 469.334c-23.467 0-42.667-19.2-42.667-42.667s19.2-42.667 42.667-42.667 42.667 19.2 42.667 42.667-19.2 42.667-42.667 42.667z" />
</font>
</defs>
</svg>
