<svg viewBox="0 0 157 173" xmlns="http://www.w3.org/2000/svg" xml:space="preserve" style="fill-rule:evenodd;clip-rule:evenodd;stroke-linejoin:round;stroke-miterlimit:2"><path d="M77.917 103.75c-2.5 0-4.618-.868-6.355-2.604-1.736-1.736-2.604-3.854-2.604-6.354s.868-4.618 2.605-6.354c1.736-1.737 3.854-2.605 6.354-2.605s4.618.868 6.354 2.605c1.736 1.736 2.604 3.854 2.604 6.354s-.868 4.618-2.604 6.354c-1.736 1.736-3.854 2.604-6.354 2.604Zm-33.334 0c-2.5 0-4.618-.868-6.354-2.604-1.736-1.736-2.604-3.854-2.604-6.354s.868-4.618 2.604-6.354c1.736-1.737 3.854-2.605 6.354-2.605s4.618.868 6.354 2.605c1.737 1.736 2.605 3.854 2.605 6.354s-.868 4.618-2.605 6.354c-1.736 1.736-3.854 2.604-6.354 2.604Zm66.667 0c-2.5 0-4.618-.868-6.354-2.604-1.736-1.736-2.604-3.854-2.604-6.354s.868-4.618 2.604-6.354c1.736-1.737 3.854-2.605 6.354-2.605s4.618.868 6.354 2.605c1.736 1.736 2.604 3.854 2.604 6.354s-.868 4.618-2.604 6.354c-1.736 1.736-3.854 2.604-6.354 2.604Zm-33.333 33.333c-2.5 0-4.618-.868-6.355-2.604-1.736-1.736-2.604-3.854-2.604-6.354s.868-4.618 2.605-6.354c1.736-1.736 3.854-2.604 6.354-2.604s4.618.868 6.354 2.604c1.736 1.736 2.604 3.854 2.604 6.354s-.868 4.618-2.604 6.354c-1.736 1.736-3.854 2.604-6.354 2.604Zm-33.334 0c-2.5 0-4.618-.868-6.354-2.604-1.736-1.736-2.604-3.854-2.604-6.354s.868-4.618 2.604-6.354c1.736-1.736 3.854-2.604 6.354-2.604s4.618.868 6.354 2.604c1.737 1.736 2.605 3.854 2.605 6.354s-.868 4.618-2.605 6.354c-1.736 1.736-3.854 2.604-6.354 2.604Zm66.667 0c-2.5 0-4.618-.868-6.354-2.604-1.736-1.736-2.604-3.854-2.604-6.354s.868-4.618 2.604-6.354c1.736-1.736 3.854-2.604 6.354-2.604s4.618.868 6.354 2.604c1.736 1.736 2.604 3.854 2.604 6.354s-.868 4.618-2.604 6.354c-1.736 1.736-3.854 2.604-6.354 2.604Zm-94.792 35.625c-4.444 0-8.298-1.632-11.562-4.895C1.632 164.549 0 160.694 0 156.25V29.167c0-4.584 1.632-8.507 4.896-11.771C8.16 14.132 12.014 12.5 16.458 12.5h12.5V0h15.625v12.5h66.667V0h15.625v12.5h12.5c4.583 0 8.507 1.632 11.771 4.896 3.264 3.264 4.896 7.187 4.896 11.771V156.25c0 4.444-1.632 8.299-4.896 11.563-3.264 3.263-7.188 4.895-11.771 4.895H16.458Zm0-16.458h122.917V67.708H16.458v88.542Zm0-101.042h122.917V29.167H16.458v26.041Zm0 0V29.167v26.041Z" style="fill:#e0e2e3;fill-rule:nonzero"/></svg>