<svg viewBox="0 0 2134 2134" xmlns="http://www.w3.org/2000/svg" xml:space="preserve" style="fill-rule:evenodd;clip-rule:evenodd;stroke-linejoin:round;stroke-miterlimit:2"><path d="M1066.67 0C478.5 0 0 478.497 0 1066.67s478.497 1066.67 1066.67 1066.67 1066.67-478.497 1066.67-1066.67C2133.34 478.5 1654.847 0 1066.67 0Zm0 1900.18c-459.613 0-833.516-373.903-833.516-833.515 0-459.59 373.903-833.516 833.516-833.516 459.612 0 833.515 373.926 833.515 833.516 0 459.612-373.903 833.515-833.515 833.515Z" style="fill:#8b929e;fill-rule:nonzero"/><path d="M1159 1067.95V620.886c0-49.918-40.451-90.369-90.35-90.369-49.914 0-90.369 40.451-90.369 90.369v475.933c0 1.421.35 2.755.419 4.176-1.189 24.572 7.276 49.521 26.043 68.292l336.556 336.53c35.301 35.3 92.514 35.3 127.788 0 35.277-35.301 35.3-92.514 0-127.791L1159 1067.95Z" style="fill:#8b929e;fill-rule:nonzero"/></svg>