<svg viewBox="0 0 63 63" xmlns="http://www.w3.org/2000/svg" xml:space="preserve" fill-rule="evenodd" clip-rule="evenodd" stroke-linejoin="round" stroke-miterlimit="2"><path d="m39.344 18.75-8.094 8.094-8.094-8.094-4.406 4.406 8.094 8.094-8.094 8.094 4.406 4.406 8.094-8.094 8.094 8.094 4.406-4.406-8.094-8.094 8.094-8.094-4.406-4.406ZM31.25 0C13.969 0 0 13.969 0 31.25S13.969 62.5 31.25 62.5 62.5 48.531 62.5 31.25 48.531 0 31.25 0Zm0 56.25c-13.781 0-25-11.219-25-25s11.219-25 25-25 25 11.219 25 25-11.219 25-25 25Z" fill="#fff" fill-rule="nonzero"/></svg>