<?xml version="1.0" encoding="UTF-8" standalone="no"?><!DOCTYPE svg PUBLIC "-//W3C//DTD SVG 1.1//EN" "http://www.w3.org/Graphics/SVG/1.1/DTD/svg11.dtd"><svg width="100%" height="100%" viewBox="0 0 67 67" version="1.1" xmlns="http://www.w3.org/2000/svg" xmlns:xlink="http://www.w3.org/1999/xlink" xml:space="preserve" xmlns:serif="http://www.serif.com/" style="fill-rule:evenodd;clip-rule:evenodd;stroke-linejoin:round;stroke-miterlimit:2;"><path d="M5.554,11.113l33.334,-0l-0.001,13.887l-13.887,0l-0,11.113l-9.721,-0l-9.725,6.941l0,-31.942Zm22.225,16.667l33.333,0l0,31.942l-9.725,-6.942l-23.608,0l0,-25Zm5.554,5.554l22.221,0l0,2.779l-22.221,0l0,-2.779Zm22.221,5.554l-22.221,0l0,2.78l22.221,-0l0,-2.78Zm-22.221,5.559l22.221,-0l0,2.775l-22.221,-0l0,-2.775Z" style="fill:#eaf1f5;fill-opacity:0.6;"/></svg>