<!DOCTYPE svg PUBLIC "-//W3C//DTD SVG 1.1//EN" "http://www.w3.org/Graphics/SVG/1.1/DTD/svg11.dtd">
<!-- Uploaded to: SVG Repo, www.svgrepo.com, Transformed by: SVG Repo Mixer Tools -->
<svg fill="#FFF" width="800px" height="800px" viewBox="0 0 24 24" xmlns="http://www.w3.org/2000/svg" stroke="#FFF">
<g id="SVGRepo_bgCarrier" stroke-width="0"/>
<g id="SVGRepo_tracerCarrier" stroke-linecap="round" stroke-linejoin="round"/>
<g id="SVGRepo_iconCarrier">
<path d="M21,8H9A1,1,0,0,0,8,9V21a1,1,0,0,0,1,1H21a1,1,0,0,0,1-1V9A1,1,0,0,0,21,8ZM20,20H10V10H20ZM6,15a1,1,0,0,1-1,1H3a1,1,0,0,1-1-1V3A1,1,0,0,1,3,2H15a1,1,0,0,1,1,1V5a1,1,0,0,1-2,0V4H4V14H5A1,1,0,0,1,6,15Z"/>
</g>
</svg>