<svg viewBox="0 0 2134 1534" xmlns="http://www.w3.org/2000/svg" xml:space="preserve" style="fill-rule:evenodd;clip-rule:evenodd;stroke-linejoin:round;stroke-miterlimit:2"><path d="M1966.67 0h-1800C74.774 0 .003 74.771.003 166.667v1200c0 91.896 74.771 166.666 166.667 166.666h1800c91.895 0 166.666-74.77 166.666-166.666v-1200C2133.336 74.771 2058.565 0 1966.67 0Z" style="fill:#5d647f;fill-rule:nonzero"/><path d="M733.333 666.667h-400c-36.82 0-66.666-29.846-66.666-66.667V333.333c0-36.82 29.846-66.666 66.666-66.666h400c36.821 0 66.667 29.846 66.667 66.666V600c0 36.821-29.846 66.667-66.667 66.667Z" style="fill:#ffd100;fill-rule:nonzero"/><path d="M500 1100H333.333c-36.82 0-66.666-29.846-66.666-66.667V1000c0-36.821 29.846-66.667 66.666-66.667H500c36.821 0 66.667 29.846 66.667 66.667v33.333c0 36.821-29.846 66.667-66.667 66.667ZM933.333 1100H766.667c-36.821 0-66.667-29.846-66.667-66.667V1000c0-36.821 29.846-66.667 66.667-66.667h166.666c36.821 0 66.667 29.846 66.667 66.667v33.333c0 36.821-29.846 66.667-66.667 66.667ZM1366.67 1100h-166.667c-36.821 0-66.667-29.846-66.667-66.667V1000c0-36.821 29.846-66.667 66.667-66.667h166.667c36.821 0 66.666 29.846 66.666 66.667v33.333c0 36.821-29.845 66.667-66.666 66.667ZM1800 1100h-166.667c-36.821 0-66.666-29.846-66.666-66.667V1000c0-36.821 29.845-66.667 66.666-66.667H1800c36.821 0 66.667 29.846 66.667 66.667v33.333c0 36.821-29.846 66.667-66.667 66.667Z" style="fill:#b8bac0;fill-rule:nonzero"/><path d="M966.667 1300H300c-18.425 0-33.333-14.925-33.333-33.333 0-18.409 14.908-33.334 33.333-33.334h666.667c18.425 0 33.333 14.925 33.333 33.334 0 18.408-14.908 33.333-33.333 33.333ZM1400 1300h-300c-18.425 0-33.333-14.925-33.333-33.333 0-18.409 14.908-33.334 33.333-33.334h300c18.425 0 33.333 14.925 33.333 33.334 0 18.408-14.908 33.333-33.333 33.333Z" style="fill:#8a8895;fill-rule:nonzero"/><g><path d="M1533.33 600.008c-36.62 40.913-89.837 66.659-149.066 66.659-110.459 0-200-89.542-200-200 0-110.459 89.541-200 200-200 59.221 0 112.429 25.737 149.05 66.637" style="fill:#ff4f19;fill-rule:nonzero"/></g><g><path d="M800 500H466.667v-66.667H800v-66.666H466.667v-100H400v400h66.667v-100H800V500Z" style="fill:#ff9500;fill-rule:nonzero"/></g><g><circle cx="1666.67" cy="466.667" r="200" style="fill:#ffd100"/></g></svg>