<svg width="16" height="16" viewBox="0 0 16 16" fill="none" xmlns="http://www.w3.org/2000/svg">
<path fill-rule="evenodd" clip-rule="evenodd" d="M11 11C11 11.2761 11.2239 11.5 11.5 11.5L13.5 11.5C13.7761 11.5 14 11.2761 14 11L14 4C14 3.72386 13.7761 3.5 13.5 3.5L11.5 3.5C11.2239 3.5 11 3.72386 11 4L11 11ZM10 4.5L5.5 4.5C3.5 4.5 2.5 7 2.5 10C2.5 11 3 11 5 11C6.02921 11 5.88145 11.7062 5.68731 12.634C5.59851 13.0584 5.5 13.5292 5.5 14C5.5 14.5 5.5 15.5 6.5 15.5C7.13217 15.5 7.40911 14.7007 7.74252 13.7384C8.15309 12.5534 8.64931 11.1213 10 10.6301L10 4.5Z" fill="#ED0D0D"/>
</svg>
