<svg width="16" height="16" fill="none" xmlns="http://www.w3.org/2000/svg">
  <path fill-rule="evenodd" clip-rule="evenodd" d="M6.5 16c.688 0 1.062-.537 1.285-.99.158-.324.302-.738.443-1.145.06-.172.119-.343.179-.505.36-.98.792-1.82 1.607-2.195A1 1 0 0011 12h2a1 1 0 001-1V4a1 1 0 00-1-1h-2a1 1 0 00-1 1H5.5c-1.255 0-2.146.8-2.697 1.901C2.256 6.995 2 8.455 2 10c0 .279.032.569.172.82.154.277.396.438.67.53.256.085.563.118.9.134.34.016.756.016 1.246.016H5c.213 0 .287.037.305.05a.217.217 0 01.016.067c.008.06.008.145-.005.265a6.96 6.96 0 01-.114.628l-.06.29A6.148 6.148 0 005 14v.023c0 .24 0 .697.16 1.1.089.22.233.448.47.618.239.173.533.259.87.259zM10 5H5.5c-.745 0-1.354.45-1.803 1.349C3.244 7.255 3 8.545 3 10c0 .221.03.306.046.335l.001.001c.004.008.016.033.111.065.12.04.312.069.631.084.314.015.707.015 1.211.015.442 0 .863.11 1.118.467.232.326.225.727.191 1.026a8.557 8.557 0 01-.136.764l-.05.24C6.054 13.34 6 13.676 6 14c0 .267.006.543.09.752.036.093.08.146.125.179.041.03.122.069.285.069.062 0 .188-.025.387-.431.131-.267.24-.584.37-.956.064-.186.133-.385.211-.598.403-1.092 1.035-2.463 2.532-2.912V5zm-4.69 6.555l-.004-.004.004.004zM13 11h-2V4h2v7z" fill="#3E4959" fill-opacity=".32"/>
</svg>
