<svg xmlns="http://www.w3.org/2000/svg" width="15.428" height="12.53"><path data-name="Path 669" d="M.967 3.374L2.895.964C3.654 0 3.63 0 4.341 0h6.747c.711 0 .687 0 1.446.964l1.928 2.41c1.3 1.446 1.277 1.446 0 2.892l-5.3 5.3c-.47.482-.711.964-1.446.964s-.976-.482-1.446-.964l-5.3-5.3C-.31 4.819-.335 4.819.967 3.374z" fill="#bf392b"/><path data-name="Path 670" d="M11.569 5.783h-7.71l3.313 6.627a1.241 1.241 0 00.542.12 1.153 1.153 0 00.53-.108zm3.843-.964v-.133a3.847 3.847 0 00-.952-1.313L12.532.963c-.759-.964-.735-.964-1.446-.964H7.704l3.856 5.783c.044-.043 3.853-.963 3.853-.963zM2.895.964L.967 3.374C.316 4.096.004 4.458.004 4.819c.036.012 3.807.916 3.856.964L7.714 0H4.34c-.71 0-.686 0-1.445.964z" fill="#cc6155"/><path data-name="Path 671" d="M3.858 5.783L7.713 0l3.855 5.783z" fill="#d98880"/><path data-name="Path 672" d="M12.016.325C11.727 0 11.582 0 11.088 0H7.714l3.855 5.783zm-8.6.012l.439 5.446L7.711 0H4.337c-.49 0-.623 0-.924.339z" fill="#d4796e"/></svg>