<svg width="16" height="16" fill="none" xmlns="http://www.w3.org/2000/svg">
  <path fill-rule="evenodd" clip-rule="evenodd" d="M9.5 0c-.688 0-1.062.537-1.285.99-.158.324-.302.738-.443 1.145-.06.172-.119.343-.179.505-.36.98-.792 1.82-1.607 2.195A1 1 0 005 4H3a1 1 0 00-1 1v7a1 1 0 001 1h2a1 1 0 001-1h4.5c1.255 0 2.146-.8 2.697-1.901C13.744 9.005 14 7.545 14 6c0-.279-.032-.569-.172-.82-.154-.277-.396-.438-.67-.53-.256-.085-.563-.118-.9-.134-.34-.016-.756-.016-1.246-.016H11c-.213 0-.287-.037-.305-.05a.215.215 0 01-.016-.067 1.159 1.159 0 01.005-.265 6.99 6.99 0 01.114-.628l.06-.29c.071-.36.142-.774.142-1.2v-.023c0-.24 0-.697-.16-1.1a1.38 1.38 0 00-.47-.618A1.456 1.456 0 009.5 0zM6 11h4.5c.745 0 1.354-.45 1.803-1.349C12.756 8.745 13 7.455 13 6c0-.221-.03-.306-.046-.335l-.001-.001c-.003-.007-.016-.033-.111-.065-.12-.04-.312-.069-.631-.084A27.848 27.848 0 0011 5.5c-.442 0-.863-.11-1.118-.467-.232-.326-.225-.727-.191-1.026.026-.235.082-.506.136-.764l.05-.24C9.946 2.66 10 2.323 10 2c0-.267-.006-.544-.09-.752a.386.386 0 00-.125-.179C9.744 1.04 9.663 1 9.5 1c-.062 0-.188.025-.387.431-.131.267-.24.584-.37.956-.064.186-.133.385-.211.598C8.129 4.077 7.497 5.448 6 5.897V11zm4.69-6.555l.004.004-.004-.004zM3 5h2v7H3V5z" fill="#3E4959" fill-opacity=".32"/>
</svg>
