<svg viewBox="0 0 140 180" xmlns="http://www.w3.org/2000/svg" xml:space="preserve" style="fill-rule:evenodd;clip-rule:evenodd;stroke-linejoin:round;stroke-miterlimit:2"><path d="M16.458 180c-4.583 0-8.472-1.632-11.666-4.896C1.597 171.84 0 167.986 0 163.542V75.208c0-4.583 1.597-8.507 4.792-11.77 3.194-3.264 7.083-4.896 11.666-4.896H28.75V41.25c0-11.528 3.958-21.285 11.875-29.271C48.542 3.993 58.194 0 69.583 0s21.042 3.993 28.959 11.979c7.916 7.986 11.875 17.743 11.875 29.271v17.292h12.291c4.584 0 8.507 1.632 11.771 4.896 3.264 3.263 4.896 7.187 4.896 11.77v88.334c0 4.444-1.632 8.298-4.896 11.562-3.264 3.264-7.187 4.896-11.771 4.896H16.458Zm0-16.458h106.25V75.208H16.458v88.334Zm53.125-28.125c4.445 0 8.23-1.528 11.355-4.584 3.125-3.055 4.687-6.736 4.687-11.041 0-4.167-1.562-7.952-4.687-11.354-3.125-3.403-6.91-5.105-11.355-5.105-4.444 0-8.229 1.702-11.354 5.105-3.125 3.402-4.687 7.187-4.687 11.354 0 4.305 1.562 7.986 4.687 11.041 3.125 3.056 6.91 4.584 11.354 4.584ZM45.208 58.542h48.75V41.25c0-6.944-2.361-12.812-7.083-17.604-4.722-4.792-10.486-7.188-17.292-7.188-6.805 0-12.569 2.396-17.291 7.188-4.723 4.792-7.084 10.66-7.084 17.604v17.292Zm-28.75 105V75.208v88.334Z" style="fill:#fff;fill-rule:nonzero"/></svg>