<?xml version="1.0" encoding="UTF-8" standalone="no"?><!DOCTYPE svg PUBLIC "-//W3C//DTD SVG 1.1//EN" "http://www.w3.org/Graphics/SVG/1.1/DTD/svg11.dtd"><svg width="100%" height="100%" viewBox="0 0 12459 12459" version="1.1" xmlns="http://www.w3.org/2000/svg" xmlns:xlink="http://www.w3.org/1999/xlink" xml:space="preserve" xmlns:serif="http://www.serif.com/" style="fill-rule:evenodd;clip-rule:evenodd;stroke-linejoin:round;stroke-miterlimit:2;"><path d="M6229.5,0c-3417.4,0 -6229.5,2812.09 -6229.5,6229.5c0,3417.4 2812.09,6229.5 6229.5,6229.5c3417.4,0 6229.5,-2812.09 6229.5,-6229.5c-3.937,-3415.9 -2813.58,-6225.54 -6229.5,-6229.5Zm2401.88,6534.67l-3425.32,2043.79c-52.997,31.524 -113.532,48.169 -175.196,48.171c-187.754,0 -342.338,-154.3 -342.688,-342.05l0,-4110.18c0.125,-187.904 154.78,-342.458 342.688,-342.458c62.273,0.002 123.384,16.976 176.737,49.091l3425.32,2065.88c102.692,61.959 165.654,173.484 165.654,293.417c0,120.571 -63.633,232.592 -167.196,294.338Z" style="fill:#fff;fill-rule:nonzero;"/></svg>