<svg viewBox="0 0 2991 2991" xmlns="http://www.w3.org/2000/svg" xml:space="preserve" style="fill-rule:evenodd;clip-rule:evenodd;stroke-linejoin:round;stroke-miterlimit:2"><circle cx="1468.03" cy="1486.79" r="854.941" style="fill:#202021"/><path d="M1495.08 0C674.905 0 0 674.902 0 1495.08c0 820.175 674.902 1495.08 1495.08 1495.08 820.175 0 1495.08-674.902 1495.08-1495.08C2989.215 675.263 2314.9.95 1495.08 0Zm576.452 1568.32-822.076 490.509a82.253 82.253 0 0 1-42.047 11.561c-45.061 0-82.161-37.032-82.245-82.092v-986.442c.03-45.097 37.147-82.19 82.245-82.19a82.255 82.255 0 0 1 42.417 11.782l822.076 495.811c24.646 14.87 39.757 41.636 39.757 70.42 0 28.937-15.272 55.822-40.127 70.641Z" style="fill:#fff;fill-rule:nonzero"/></svg>