<svg viewBox="0 0 67 67" xmlns="http://www.w3.org/2000/svg" fill-rule="evenodd" clip-rule="evenodd">
  <path d="M14.013 29.15A23.602 23.602 0 0111 21.125c.625.471 1.283.896 1.958 1.283 2.784 1.609 6 2.646 8.975 3.321a56.96 56.96 0 0011.13 1.35h.195l.05.004h.025V25v2.083h2.084V15.154L55.25 33.333 35.417 51.512V39.583H33.3a9.91 9.91 0 01-.879-.045 26.625 26.625 0 01-2.625-.346 26.99 26.99 0 01-7.971-2.742 20.455 20.455 0 01-7.813-7.3z" fill="#3e4959" fill-opacity=".8" fill-rule="nonzero" stroke="#3e4959" stroke-opacity=".32" stroke-width="4.17"/>
</svg>
