<?xml version="1.0" encoding="UTF-8" standalone="no"?><!DOCTYPE svg PUBLIC "-//W3C//DTD SVG 1.1//EN" "http://www.w3.org/Graphics/SVG/1.1/DTD/svg11.dtd"><svg width="100%" height="100%" viewBox="0 0 130 110" version="1.1" xmlns="http://www.w3.org/2000/svg" xmlns:xlink="http://www.w3.org/1999/xlink" xml:space="preserve" xmlns:serif="http://www.serif.com/" style="fill-rule:evenodd;clip-rule:evenodd;stroke-linejoin:round;stroke-miterlimit:2;"><g><g id="c100_arrow"><path d="M0,54.946c0.004,7.092 5.763,12.838 12.854,12.846l73.034,-0.008l-19.742,19.746c-5.346,5.35 -5.621,13.754 -0.604,18.779c5.021,5.004 13.425,4.741 18.779,-0.609l41.233,-41.241c5.363,-5.346 5.634,-13.754 0.609,-18.775c-0.138,-0.121 -0.284,-0.213 -0.417,-0.334c-0.171,-0.179 -0.292,-0.391 -0.471,-0.579l-40.683,-40.675c-5.284,-5.275 -13.625,-5.483 -18.642,-0.462c-5.021,5.021 -4.804,13.366 0.463,18.65l19.812,19.808l-73.371,0c-7.1,-0.004 -12.854,5.746 -12.854,12.854Z" style="fill:#fff;fill-rule:nonzero;"/></g></g></svg>