<svg viewBox="0 0 35 72" xmlns="http://www.w3.org/2000/svg" xml:space="preserve" style="fill-rule:evenodd;clip-rule:evenodd;stroke-linejoin:round;stroke-miterlimit:2"><path style="fill:none;fill-rule:nonzero" d="M-32.615-14.198h100v100h-100z"/><path d="m17.385 10.094 10.25 10.25a4.15 4.15 0 0 0 5.875 0 4.15 4.15 0 0 0 0-5.875L20.302 1.219a4.15 4.15 0 0 0-5.875 0L1.219 14.469a4.15 4.15 0 0 0 0 5.875 4.15 4.15 0 0 0 5.875 0l10.291-10.25Zm0 51.416L7.135 51.26a4.15 4.15 0 0 0-5.875 0 4.15 4.15 0 0 0 0 5.875l13.209 13.25a4.15 4.15 0 0 0 5.875 0l13.208-13.208a4.15 4.15 0 0 0 0-5.875 4.15 4.15 0 0 0-5.875 0L17.385 61.51Z" style="fill:#3e4959;fill-rule:nonzero"/><circle cx="17.542" cy="35.457" r="8.951" style="fill:#3e4959"/></svg>