<svg viewBox="0 0 200 200" xmlns="http://www.w3.org/2000/svg" xml:space="preserve" style="fill-rule:evenodd;clip-rule:evenodd;stroke-linejoin:round;stroke-miterlimit:2"><path d="m165.417 186.875-23.125-23.125a272.5 272.5 0 0 1-5.938 3.542 64.742 64.742 0 0 1-6.562 3.333c-2.361.833-4.653.521-6.875-.937-2.223-1.459-3.334-3.716-3.334-6.771 0-.834.174-1.598.521-2.292.347-.694.938-1.319 1.771-1.875 1.806-.556 3.646-1.319 5.521-2.292a39.856 39.856 0 0 0 5.104-3.125l-29.583-29.791V155c0 4.444-1.91 7.465-5.729 9.063-3.82 1.597-7.257.868-10.313-2.188l-32.083-32.083H28.125c-2.778 0-5.069-.903-6.875-2.709-1.806-1.805-2.708-4.097-2.708-6.875V79.792c0-2.778.902-5.104 2.708-6.979S25.347 70 28.125 70h22.708l-40-40.625c-1.25-1.25-1.875-2.917-1.875-5s.764-3.819 2.292-5.208c1.389-1.389 3.09-2.084 5.104-2.084 2.014 0 3.646.695 4.896 2.084l154.792 157.708c1.25 1.528 1.875 3.299 1.875 5.313 0 2.013-.625 3.576-1.875 4.687-1.528 1.667-3.334 2.5-5.417 2.5-2.083 0-3.819-.833-5.208-2.5ZM129.792 28.958c14.722 5.417 26.562 14.584 35.521 27.5 8.958 12.917 13.437 27.361 13.437 43.334 0 7.639-1.111 14.965-3.333 21.979a78.955 78.955 0 0 1-9.375 19.687l-10-10.416a59.546 59.546 0 0 0 6.25-14.896c1.389-5.208 2.083-10.66 2.083-16.354 0-13.195-3.681-25.139-11.042-35.834-7.361-10.694-17.152-18.055-29.375-22.083a6.609 6.609 0 0 1-3.125-2.187c-.833-1.042-1.25-2.257-1.25-3.646 0-2.5 1.042-4.549 3.125-6.146 2.084-1.597 4.445-1.91 7.084-.938Zm10 85.834-20.209-20.625V64.583c6.945 3.473 12.535 8.368 16.771 14.688 4.236 6.319 6.354 13.229 6.354 20.729 0 2.639-.243 5.174-.729 7.604a38.86 38.86 0 0 1-2.187 7.188Zm-36.875-37.709L75.833 49.167l11.042-11.25c3.056-3.056 6.493-3.681 10.313-1.875 3.819 1.805 5.729 4.652 5.729 8.541v32.5ZM83.75 131.875v-27.917L69.375 89.167H37.5v21.666h25l21.25 21.042Z" style="fill:#fff;fill-rule:nonzero"/></svg>