<?xml version="1.0" encoding="iso-8859-1"?>
<!-- Generator: Adobe Illustrator 19.0.0, SVG Export Plug-In . SVG Version: 6.00 Build 0)  -->
<svg version="1.1" id="Layer_1" xmlns="http://www.w3.org/2000/svg" xmlns:xlink="http://www.w3.org/1999/xlink" x="0px" y="0px"
	 viewBox="0 0 512 512" style="enable-background:new 0 0 512 512;" xml:space="preserve">
<g>
	<path style="fill:#71C386;" d="M394.847,52.068H117.153c-5.207,0-8.678-3.471-8.678-8.678s3.471-8.678,8.678-8.678h277.695
		c5.207,0,8.678,3.471,8.678,8.678S400.054,52.068,394.847,52.068"/>
	<path style="fill:#71C386;" d="M360.136,86.78c-2.603,0-4.339-0.868-6.075-2.603c-3.471-3.471-3.471-8.678,0-12.149l28.637-28.637
		l-28.637-28.637c-3.471-3.471-3.471-8.678,0-12.149c3.471-3.471,8.678-3.471,12.149,0l34.712,34.712
		c3.471,3.471,3.471,8.678,0,12.149L366.21,84.176C364.475,85.912,362.739,86.78,360.136,86.78"/>
</g>
<path style="fill:#FDC794;" d="M238.644,512L238.644,512c-66.82,0-121.492-54.671-121.492-121.492V199.593
	c0-66.82,54.671-121.492,121.492-121.492l0,0c66.82,0,121.492,54.671,121.492,121.492v190.915
	C360.136,457.329,305.464,512,238.644,512"/>
<path style="fill:#FFE9EC;" d="M151.864,286.373v-86.78c0-47.729,39.051-86.78,86.78-86.78s86.78,39.051,86.78,86.78v86.78H151.864z
	"/>
<g>
	<path style="fill:#F9A671;" d="M325.424,373.153H151.864c-5.207,0-8.678-3.471-8.678-8.678s3.471-8.678,8.678-8.678h173.559
		c5.207,0,8.678,3.471,8.678,8.678S330.63,373.153,325.424,373.153"/>
	<path style="fill:#F9A671;" d="M325.424,407.864H151.864c-5.207,0-8.678-3.471-8.678-8.678c0-5.207,3.471-8.678,8.678-8.678
		h173.559c5.207,0,8.678,3.471,8.678,8.678C334.102,404.393,330.63,407.864,325.424,407.864"/>
</g>
<path style="fill:#FFFFFF;" d="M238.644,234.305c-47.729,0-86.78,23.431-86.78,52.068h173.559
	C325.424,257.736,286.373,234.305,238.644,234.305"/>
<g>
</g>
<g>
</g>
<g>
</g>
<g>
</g>
<g>
</g>
<g>
</g>
<g>
</g>
<g>
</g>
<g>
</g>
<g>
</g>
<g>
</g>
<g>
</g>
<g>
</g>
<g>
</g>
<g>
</g>
</svg>
