<svg xmlns="http://www.w3.org/2000/svg" width="21.664" height="21.664"><g data-name="verify icon"><path data-name="Path 658" d="M19.911 5.591L17.255 4.41l-1.182-2.657-2.89.3L10.832.346 8.479 2.055l-2.889-.3L4.409 4.41 1.753 5.591l.3 2.89L.35 10.832l1.705 2.353-.3 2.889 2.656 1.181 1.182 2.657 2.89-.3 2.351 1.705 2.353-1.705 2.889.3 1.181-2.656 2.657-1.182-.3-2.89 1.705-2.351-1.705-2.353zM8.738 15.025l-2.967-2.967.989-.985 1.978 1.973 5.929-5.929.989.989zm0 0" fill="#57a4ff"/><g data-name="Group 827" fill="none"><path data-name="Path 659" d="M21.592 10.627L19.97 8.382l.288-2.756a.35.35 0 00-.206-.356L17.52 4.143l-1.128-2.532a.352.352 0 00-.356-.206l-2.757.288L11.037.067a.349.349 0 00-.41 0L8.382 1.693l-2.756-.288a.354.354 0 00-.356.205L4.143 4.143 1.61 5.27a.349.349 0 00-.205.355l.287 2.757-1.626 2.245a.349.349 0 000 .41l1.626 2.244-.288 2.757a.349.349 0 00.205.356l2.533 1.127 1.127 2.533a.353.353 0 00.356.206l2.757-.288 2.245 1.628a.349.349 0 00.41 0l2.244-1.627 2.757.288a.351.351 0 00.356-.205l1.127-2.533 2.532-1.127a.35.35 0 00.206-.355l-.288-2.757 1.621-2.247a.349.349 0 000-.41zm-2.271 2.353a.349.349 0 00-.065.241l.275 2.637-2.423 1.079a.347.347 0 00-.178.177l-1.078 2.423-2.638-.276a.349.349 0 00-.241.065l-2.141 1.557-2.148-1.557a.346.346 0 00-.2-.067.227.227 0 00-.035 0l-2.638.276-1.083-2.421a.349.349 0 00-.177-.178l-2.425-1.078.275-2.637a.35.35 0 00-.065-.241L.781 10.832l1.556-2.148a.35.35 0 00.065-.241l-.276-2.637L4.55 4.727a.346.346 0 00.177-.177l1.078-2.423 2.638.273a.353.353 0 00.241-.065L10.832.781l2.147 1.556a.351.351 0 00.241.065l2.638-.276 1.078 2.424a.349.349 0 00.178.177l2.423 1.078-.275 2.638a.349.349 0 00.065.241l1.556 2.147zm0 0"/><path data-name="Path 660" d="M14.911 6.87a.349.349 0 00-.494 0l-5.682 5.682-1.731-1.727a.349.349 0 00-.493 0l-.991.985a.349.349 0 000 .495l2.967 2.967a.35.35 0 00.494 0l6.918-6.918a.35.35 0 000-.494zm-6.176 7.66l-2.472-2.472.494-.493 1.731 1.728a.35.35 0 00.494 0l5.682-5.682.495.495zm0 0"/></g></g></svg>