<svg viewBox="0 0 179 157" xmlns="http://www.w3.org/2000/svg" xml:space="preserve" style="fill-rule:evenodd;clip-rule:evenodd;stroke-linejoin:round;stroke-miterlimit:2"><path d="M10 156.458c-3.75 0-6.597-1.666-8.542-5-1.944-3.333-1.944-6.666 0-10L80.625 5c1.944-3.333 4.792-5 8.542-5s6.597 1.667 8.541 5l79.167 136.458c1.944 3.334 1.944 6.667 0 10-1.944 3.334-4.792 5-8.542 5H10ZM90 61.25c-1.806 0-3.299.59-4.479 1.771-1.181 1.18-1.771 2.673-1.771 4.479V100c0 1.806.59 3.299 1.771 4.479 1.18 1.181 2.673 1.771 4.479 1.771s3.299-.59 4.479-1.771c1.181-1.18 1.771-2.673 1.771-4.479V67.5c0-1.806-.59-3.299-1.771-4.479-1.18-1.181-2.673-1.771-4.479-1.771Zm0 67.708c1.944 0 3.611-.729 5-2.187 1.389-1.458 2.083-3.09 2.083-4.896 0-1.944-.729-3.576-2.187-4.896C93.437 115.66 91.806 115 90 115c-1.944 0-3.611.694-5 2.083-1.389 1.389-2.083 2.986-2.083 4.792 0 1.944.729 3.611 2.187 5 1.458 1.389 3.09 2.083 4.896 2.083Zm-66.875 10h132.083L89.167 24.792 23.125 138.958Z" style="fill:red;fill-rule:nonzero"/></svg>