<svg width="24" height="24" fill="none" xmlns="http://www.w3.org/2000/svg">
  <path d="M6.888 19.762l.346.205a9.461 9.461 0 004.822 1.32h.004c5.221 0 9.471-4.249 9.473-9.47 0-2.532-.983-4.911-2.772-6.701a9.412 9.412 0 00-6.698-2.778c-5.226 0-9.475 4.248-9.477 9.47-.001 1.79.5 3.533 1.448 5.04l.225.359-.957 3.495 3.586-.94zM.565 23.409l1.618-5.905A11.373 11.373 0 01.66 11.808C.664 5.525 5.777.414 12.06.414a11.328 11.328 0 018.063 3.341 11.326 11.326 0 013.336 8.062C23.455 18.099 18.34 23.21 12.06 23.21h-.005a11.39 11.39 0 01-5.447-1.387L.565 23.41z" fill="#fff"/>
  <path d="M1.044 11.8c0 1.954.51 3.84 1.487 5.506L.955 23.01l5.839-1.532c1.598.888 3.418 1.332 5.26 1.332 6.061 0 11.011-4.928 11.011-10.988 0-2.953-1.154-5.706-3.218-7.792C17.76 1.966 15.007.81 12.055.81c-6.06 0-11.01 4.93-11.01 10.99z" fill="url(#paint0_linear)"/>
  <path d="M.653 11.796c0 2.024.529 3.978 1.54 5.703l-1.632 5.91 6.048-1.587c1.655.92 3.54 1.38 5.45 1.38 6.277 0 11.405-5.105 11.405-11.383 0-3.058-1.196-5.91-3.334-8.071C17.968 1.609 15.117.414 12.058.414 5.781.414.653 5.518.653 11.796zm3.61 5.404l-.23-.345a9.561 9.561 0 01-1.449-5.036c0-5.243 4.254-9.474 9.474-9.474 2.53 0 4.921.989 6.692 2.76a9.447 9.447 0 012.782 6.714c0 5.22-4.254 9.474-9.474 9.474-1.701 0-3.38-.46-4.829-1.334l-.345-.207-3.587.943.966-3.495z" fill="url(#paint1_linear)"/>
  <path fill-rule="evenodd" clip-rule="evenodd" d="M9.21 7.044c-.214-.474-.438-.484-.641-.492-.166-.007-.356-.007-.546-.007-.19 0-.499.072-.76.357-.26.285-.996.974-.996 2.375s1.02 2.755 1.162 2.946c.143.19 1.97 3.157 4.866 4.298 2.405.95 2.895.76 3.417.713.522-.048 1.685-.689 1.923-1.354.237-.665.237-1.235.166-1.354-.071-.119-.261-.19-.546-.332-.285-.143-1.685-.832-1.946-.927-.261-.095-.451-.142-.641.143s-.736.926-.902 1.116c-.166.19-.332.214-.617.072-.285-.143-1.202-.444-2.29-1.414-.847-.755-1.418-1.687-1.585-1.972-.166-.285-.017-.44.125-.581.128-.128.285-.333.428-.499.142-.166.19-.285.284-.475.095-.19.048-.356-.024-.499-.07-.142-.624-1.55-.877-2.114z" fill="#fff"/>
  <defs>
    <linearGradient id="paint0_linear" x1="12.009" y1="23.011" x2="12.009" y2=".812" gradientUnits="userSpaceOnUse">
      <stop stop-color="#20B038"/>
      <stop offset="1" stop-color="#60D66A"/>
    </linearGradient>
    <linearGradient id="paint1_linear" x1="12.011" y1="23.409" x2="12.011" y2=".414" gradientUnits="userSpaceOnUse">
      <stop stop-color="#F9F9F9"/>
      <stop offset="1" stop-color="#fff"/>
    </linearGradient>
  </defs>
</svg>
