<?xml version="1.0" encoding="UTF-8" standalone="no"?><!DOCTYPE svg PUBLIC "-//W3C//DTD SVG 1.1//EN" "http://www.w3.org/Graphics/SVG/1.1/DTD/svg11.dtd"><svg width="100%" height="100%" viewBox="0 0 120 84" version="1.1" xmlns="http://www.w3.org/2000/svg" xmlns:xlink="http://www.w3.org/1999/xlink" xml:space="preserve" xmlns:serif="http://www.serif.com/" style="fill-rule:evenodd;clip-rule:evenodd;stroke-linejoin:round;stroke-miterlimit:2;"><g><g><path d="M116.553,13.014c-1.372,-5.126 -5.4,-9.153 -10.525,-10.525c-9.279,-2.489 -46.507,-2.489 -46.507,-2.489c-0,-0 -37.228,0 -46.508,2.489c-5.125,1.372 -9.152,5.399 -10.524,10.525c-2.489,9.279 -2.489,28.653 -2.489,28.653c0,-0 0,19.373 2.489,28.653c1.372,5.125 5.399,9.152 10.524,10.524c9.28,2.489 46.508,2.489 46.508,2.489c-0,0 37.228,0 46.507,-2.489c5.125,-1.372 9.153,-5.399 10.525,-10.524c2.489,-9.28 2.489,-28.653 2.489,-28.653c0,-0 -0.01,-19.374 -2.489,-28.654Z" style="fill:#f00;fill-rule:nonzero;"/><path d="M47.605,59.523l30.927,-17.855l-30.927,-17.854l0,35.708Z" style="fill:#fff;fill-rule:nonzero;"/></g></g></svg>