<svg viewBox="0 0 374 84" xmlns="http://www.w3.org/2000/svg" xml:space="preserve" style="fill-rule:evenodd;clip-rule:evenodd;stroke-linejoin:round;stroke-miterlimit:2"><path d="M116.553 13.014a14.908 14.908 0 0 0-10.525-10.525C96.749 0 59.521 0 59.521 0S22.293 0 13.013 2.489A14.906 14.906 0 0 0 2.489 13.014C0 22.293 0 41.667 0 41.667S0 61.04 2.489 70.32a14.907 14.907 0 0 0 10.524 10.524c9.28 2.489 46.508 2.489 46.508 2.489s37.228 0 46.507-2.489a14.908 14.908 0 0 0 10.525-10.524c2.489-9.28 2.489-28.653 2.489-28.653s-.01-19.374-2.489-28.654Z" style="fill:red;fill-rule:nonzero"/><path d="m47.605 59.523 30.927-17.855-30.927-17.854v35.708Z" style="fill:#fff;fill-rule:nonzero"/><g><path d="M144.177 54.182 130.81 5.91h11.662l4.684 21.882c1.195 5.39 2.067 9.986 2.636 13.788h.343c.392-2.725 1.274-7.291 2.636-13.71l4.85-21.96h11.662L155.75 54.182v23.156h-11.583V54.182h.01ZM172.79 75.807c-2.351-1.587-4.027-4.057-5.027-7.408-.989-3.352-1.489-7.8-1.489-13.366v-7.575c0-5.615.569-10.133 1.705-13.533 1.137-3.4 2.911-5.89 5.321-7.448 2.411-1.558 5.576-2.342 9.496-2.342 3.861 0 6.947.794 9.279 2.382 2.323 1.587 4.028 4.076 5.106 7.447 1.078 3.381 1.617 7.879 1.617 13.494v7.575c0 5.566-.529 10.034-1.578 13.405-1.048 3.381-2.753 5.85-5.105 7.408-2.352 1.559-5.547 2.342-9.574 2.342-4.155.01-7.398-.793-9.751-2.381Zm13.19-8.172c.647-1.705.98-4.479.98-8.34V43.038c0-3.743-.323-6.487-.98-8.212-.656-1.734-1.802-2.596-3.449-2.596-1.587 0-2.714.862-3.361 2.596-.657 1.735-.98 4.469-.98 8.212v16.257c0 3.861.313 6.644.941 8.34.627 1.705 1.754 2.557 3.4 2.557 1.647 0 2.793-.852 3.449-2.557ZM236.731 77.348h-9.192l-1.019-6.39h-.255c-2.499 4.822-6.242 7.232-11.24 7.232-3.459 0-6.016-1.137-7.662-3.4-1.647-2.274-2.47-5.821-2.47-10.642V25.156h11.75v38.306c0 2.332.254 3.988.764 4.978.509.99 1.362 1.489 2.557 1.489 1.019 0 1.999-.313 2.94-.94.941-.628 1.627-1.421 2.087-2.382v-41.46h11.74v52.201Z" style="fill:#fff;fill-rule:nonzero"/><path d="M268.648 15.365h-11.661v61.98h-11.495v-61.98h-11.661V5.918h34.817v9.447Z" style="fill:#fff;fill-rule:nonzero"/><path d="M296.987 77.348h-9.192l-1.019-6.39h-.255c-2.498 4.822-6.242 7.232-11.24 7.232-3.459 0-6.016-1.137-7.663-3.4-1.646-2.274-2.469-5.821-2.469-10.642V25.156h11.749v38.306c0 2.332.255 3.988.764 4.978.51.99 1.363 1.489 2.558 1.489 1.019 0 1.999-.313 2.94-.94.941-.628 1.627-1.421 2.087-2.382v-41.46h11.74v52.201ZM335.871 33.495c-.716-3.293-1.862-5.674-3.449-7.154-1.588-1.48-3.773-2.215-6.556-2.215-2.156 0-4.175.608-6.046 1.833a12.448 12.448 0 0 0-4.342 4.811h-.088V3.274h-11.318v74.063h9.701l1.196-4.939h.255c.911 1.764 2.273 3.145 4.086 4.175 1.813 1.019 3.832 1.528 6.046 1.528 3.969 0 6.899-1.832 8.771-5.488 1.871-3.665 2.812-9.378 2.812-17.158v-8.261c0-5.831-.363-10.407-1.068-13.699Zm-10.77 21.293c0 3.802-.156 6.782-.47 8.937-.314 2.156-.833 3.695-1.578 4.596-.735.912-1.734 1.362-2.979 1.362a5.4 5.4 0 0 1-2.685-.685c-.823-.451-1.489-1.137-1.999-2.039V37.336c.392-1.421 1.078-2.577 2.048-3.489.961-.911 2.019-1.362 3.146-1.362 1.196 0 2.116.471 2.763 1.402.657.94 1.108 2.508 1.363 4.723.254 2.214.382 5.36.382 9.446v6.732h.009ZM353.607 57.797c0 3.351.098 5.86.294 7.536.196 1.675.608 2.89 1.235 3.665.627.764 1.587 1.146 2.891 1.146 1.754 0 2.969-.686 3.615-2.048.657-1.362 1.01-3.636 1.069-6.811l10.132.598c.059.451.088 1.078.088 1.872 0 4.821-1.323 8.427-3.959 10.808-2.635 2.382-6.369 3.577-11.19 3.577-5.792 0-9.849-1.813-12.171-5.448-2.332-3.636-3.489-9.251-3.489-16.855v-9.114c0-7.829 1.206-13.552 3.616-17.158 2.411-3.606 6.537-5.409 12.387-5.409 4.027 0 7.124.735 9.28 2.214 2.155 1.48 3.674 3.773 4.556 6.899.882 3.126 1.323 7.438 1.323 12.945v8.937h-19.677v2.646Zm1.49-24.597c-.598.735-.99 1.941-1.196 3.616-.196 1.676-.294 4.214-.294 7.624v3.744h8.594V44.44c0-3.351-.117-5.889-.343-7.624-.225-1.734-.637-2.949-1.235-3.665-.597-.705-1.518-1.068-2.763-1.068-1.254.01-2.175.383-2.763 1.117Z" style="fill:#fff;fill-rule:nonzero"/></g></svg>