<svg viewBox="0 0 8230 8230" xmlns="http://www.w3.org/2000/svg" xml:space="preserve" style="fill-rule:evenodd;clip-rule:evenodd;stroke-linejoin:round;stroke-miterlimit:2"><circle cx="4113.99" cy="4113.99" r="4113.99" style="fill:#ff9300"/><path style="fill:none" d="M1569.57 1731.24H6735.9v5166.33H1569.57z"/><path d="M4152.74 6660.68c-361.472 0-699.053-67.516-1012.74-202.549-313.691-135.032-591.027-322.001-832.008-560.904-240.981-238.904-428.988-514.163-564.021-825.776-135.032-311.614-202.548-652.311-202.548-1022.09 0-361.472 67.516-699.053 202.548-1012.74 135.033-313.691 323.04-591.027 564.021-832.009 240.981-240.981 518.317-428.987 832.008-564.02 313.691-135.033 651.272-202.549 1012.74-202.549 365.627 0 705.285 67.516 1018.98 202.549 313.691 135.033 589.989 323.039 828.892 564.02 238.904 240.982 425.872 518.318 560.905 832.009 135.032 313.691 202.548 651.272 202.548 1012.74v317.845c0 261.756-89.329 475.73-267.987 641.924-178.659 166.194-400.943 249.291-666.853 249.291-170.349 0-323.04-40.51-458.072-121.529-135.033-81.02-237.865-190.085-308.497-327.194-103.872 153.729-232.672 266.948-386.401 339.658-153.73 72.71-328.233 109.065-523.511 109.065-336.543 0-623.227-117.374-860.053-352.123-236.827-234.749-355.24-522.472-355.24-863.17 0-340.697 118.413-628.42 355.24-863.169 236.826-234.749 523.51-352.123 860.053-352.123s623.227 117.374 860.053 352.123c236.827 234.749 355.24 524.549 355.24 869.402v274.219c0 128.801 45.703 234.749 137.11 317.846 91.406 83.097 199.432 124.646 324.078 124.646 116.335 0 218.129-41.549 305.381-124.646 87.252-83.097 130.878-189.045 130.878-317.846v-274.219c0-589.989-204.626-1089.61-613.879-1498.86-409.252-409.252-908.873-613.878-1498.86-613.878-585.833 0-1084.41 205.665-1495.75 616.995C2245.665 2964.947 2040 3463.529 2040 4049.368c0 589.988 204.627 1089.61 613.879 1498.86 409.252 409.252 908.873 613.878 1498.86 613.878h1333.71v498.582h-1333.71Zm0-1894.61c203.588 0 374.975-69.594 514.162-208.781 139.188-139.188 208.781-308.498 208.781-507.93 0-199.433-70.632-370.821-211.897-514.163-141.265-143.342-311.613-215.013-511.046-215.013-203.587 0-374.975 72.71-514.162 218.129-139.188 145.42-208.781 317.846-208.781 517.279 0 199.432 70.632 367.704 211.897 504.814s311.613 205.665 511.046 205.665Z" style="fill:#fff;fill-rule:nonzero"/></svg>